**ABCDEFGHIJKLMNOPQRSTUVWXYZabcdefghijklmnopqrstuvwxyz**************************
**PARASOLID !"#$%&'()*+,-./:;<=>?@[\]^_`{|}~0123456789**************************
**PART1;
MC=unknown;
MC_MODEL=unknown;
MC_ID=unknown;
OS=unknown;
OS_RELEASE=unknown;
FRU=Parasolid 37.1.212;
APPL=Onshape;
SITE=unknown;
USER=unknown;
FORMAT=text;
GUISE=transmit;
KEY=BTGapi::writeModels_.xmt;
FILE=BTGapi::writeModels_.xmt;
DATE=2026-07-08T19:32:36 (UTC);
**PART2;
SCH=SCH_3701212_37102;
USFLD_SIZE=0;
**PART3;
**END_OF_HEADER*****************************************************************
T51 : TRANSMIT FILE created by modeller version 370121223 SCH_3701212_37102_1300
6239 0 12 36 CCCI7 lattice222 0 CCCI4 mesh1006 0 I8 polyline1008 0 CCCCCCCDI5 ow
ner1040 0 CCCI16 boundary_lattice222 0 CCCI13 boundary_mesh1006 0 I17 boundary_p
olyline1008 0 CCCA16 index_map_offset0 0 1 dA9 index_map82 0 A17 node_id_index_m
ap82 0 A20 schema_embedding_map82 0 A5 child12 0 A14 lowest_node_id0 0 1 dA16 me
sh_offset_data206 0 Z1 2426 2 3 0 0 0 0 0 0 0 1e3 1e-8 0 4 5 1 0 1 2 6 0 7 8 9 0
 0 10 11 12 0 0 0 0 0 0 0 81 255 1 2 2384 13 1 14 0 0 0 15 70 11 CI9 list_type0
 0 1 uI10 notransmit0 0 1 lCCCDCCDI12 finger_index0 0 1 dI12 finger_block1012 0
 CZ3 0 4 T1 0 0 5 20 1 16 16 13 255 6 137 0 1 0 17 0 0 18 0 51 255 7 2359 0 17 1
9 0 0 +.038 .0513 .003 0 0 1 .003 1 0 0 31 255 8 2346 0 11 20 0 0 +.038 .0513 .0
03 0 0 1 1 0 0 .003 29 255 9 2333 0 12 21 0 .038 .0543 .003 19 9 CCCCCCI5 frame2
30 0 CA5 owner12 0 Z10 48 0 1 18 0 22 0 V0 16 255 11 2344 23 ?24 0 25 8 0 0 1 18
 255 12 2330 27 24 0 30 9 ?1 81 1 27 2368 29 12 0 0 26 28 34 17 255 24 0 35 32 3
3 12 31 11 0 38 +18 30 2326 26 40 12 36 21 ?1 81 1 26 2367 29 30 0 0 39 27 37 17
 40 0 41 38 45 30 43 25 0 42 -18 36 2317 44 43 30 46 50 ?1 29 21 2329 0 30 50 9
 .038 .0543 -.003 29 50 2320 0 36 48 21 .041 .0513 -.003 29 48 2316 0 46 47 50 .
041 .0513 .003 18 46 2313 39 31 36 49 48 ?1 29 47 2264 0 49 51 48 -.041 .0513 .0
03 18 49 2261 55 52 46 53 47 ?1 29 51 2260 0 53 54 47 -.041 .0513 -.003 18 53 22
57 57 60 49 59 51 ?1 29 54 2251 0 59 56 51 -.038 .0543 .003 18 59 2248 58 61 53
 62 54 ?1 29 56 2247 0 62 64 54 -.038 .0543 -.003 18 62 2244 63 65 59 67 56 ?1 2
9 64 2182 0 67 70 56 -.03379999929524535 .0513 .015 18 67 2179 69 66 62 68 64 ?1
 29 70 2178 0 68 75 64 -.03379999929524535 .0513 .003 18 68 2175 71 73 67 72 70
 ?1 29 75 2113 0 72 74 70 .03380000070475625 .0513 .015 18 72 2110 76 80 68 77 7
5 ?1 29 74 2109 0 77 78 75 .03380000070475625 .0513 .003 18 77 2106 79 82 72 85
 74 ?1 29 78 2044 0 85 84 74 .03380000070475625 -.003000000000001435 .003 18 85
 2041 81 83 77 89 78 ?1 29 84 2040 0 89 90 78 .03380000070475625 -.0030000000000
01435 .015 18 89 2037 87 88 85 86 84 ?1 29 90 1975 0 86 93 84 -.0337999992952454
 -.003000000000001455 .015 18 86 1972 95 91 89 94 90 ?1 29 93 1971 0 94 92 90 -.
0337999992952454 -.003000000000001455 .003 18 94 1968 96 100 86 98 93 ?1 29 92 1
906 0 98 97 93 -.0185499992952454 -.02500000000000145 .003 18 98 1903 99 101 94
 105 92 ?1 29 97 1902 0 105 103 92 -.0185499992952454 -.02500000000000145 .015 1
8 105 1899 102 104 98 106 97 ?1 29 103 1837 0 106 110 97 .01855000070475625 -.02
500000000000145 .015 18 106 1834 107 108 105 109 103 ?1 29 110 1833 0 109 112 10
3 .01855000070475625 -.02500000000000145 .003 18 109 1830 115 114 106 111 110 ?1
 29 112 1765 0 111 113 110 -.03079999929524535 -.02500000000000145 .015 18 111 1
762 116 117 109 119 112 ?1 29 113 1761 0 119 118 112 -.03079999929524535 -.02500
000000000145 .003 18 119 1758 120 122 111 125 113 ?1 29 118 1752 0 125 124 113 -
.0337999992952454 -.02200000000000145 .015 18 125 1749 121 123 119 130 118 ?1 29
 124 1748 0 130 126 118 -.0337999992952454 -.02200000000000145 .003 18 130 1745
 128 127 125 129 124 ?1 29 126 1680 0 129 131 124 .03380000070475625 -.022000000
00000145 .015 18 129 1677 135 132 130 133 126 ?1 29 131 1676 0 133 134 126 .0338
0000070475625 -.02200000000000145 .003 18 133 1673 137 140 129 139 131 ?1 29 134
 1667 0 139 136 131 .03080000070475625 -.02500000000000145 .015 18 139 1664 138
 144 133 145 134 ?1 29 136 1663 0 145 142 134 .03080000070475625 -.0250000000000
0145 .003 18 145 1660 143 141 139 148 136 ?1 29 142 981 0 148 150 136 -.03079999
92952454 -1453212366388832e-30 .003 18 148 979 146 149 145 147 142 ?1 29 150 978
 0 147 151 142 -.0307999992952454 -.02200000000000145 .003 18 147 976 155 153 14
8 152 150 ?1 29 151 953 0 152 154 150 -.03079999929524535 .0483 .003 18 152 951
 156 160 147 158 151 ?1 29 154 930 0 158 157 151 .03080000070475625 -.0220000000
0000145 .003 18 158 928 159 161 152 165 154 ?1 29 157 924 0 165 162 154 .0338000
0070475625 .0543 .003 18 165 920 163 32 158 164 157 ?1 29 162 919 0 164 167 157
 .03080000070475625 .0543 .003 18 164 915 170 169 165 166 162 ?1 29 167 914 0 16
6 168 162 -.03079999929524535 .0543 .003 18 166 910 171 172 164 174 167 ?1 29 16
8 909 0 174 173 167 -.03379999929524535 .0543 .003 18 174 905 175 177 166 180 16
8 ?1 29 173 799 0 180 179 168 -.031 -.0543 .003 18 180 796 176 178 174 185 173 ?
1 29 179 795 0 185 181 173 -.031 -.0543 -.003 18 185 792 183 182 180 184 179 ?1
 29 181 786 0 184 186 179 -.041 -.0443 .003 18 184 783 190 187 185 188 181 ?1 29
 186 782 0 188 189 181 -.041 -.0443 -.003 18 188 779 192 195 184 194 186 ?1 29 1
89 730 0 194 191 186 .031 -.0543 .003 18 194 727 193 199 188 200 189 ?1 29 191 7
26 0 200 197 189 .031 -.0543 -.003 18 200 723 198 196 194 203 191 ?1 29 197 717
 0 203 205 191 .041 -.0443 .003 18 203 714 201 204 200 202 197 ?1 29 205 713 0 2
02 206 197 .041 -.0443 -.003 18 202 710 210 208 203 207 205 ?1 29 206 1550 0 209
 211 205 .01555000070475625 -.02200000000000145 .003 18 209 1407 215 213 212 214
 206 ?1 29 211 1554 0 214 216 206 .03080000070475625 -1434718561355586e-30 .003
 18 214 1399 220 217 209 218 211 ?1 29 216 1555 0 207 219 211 .03080000070475625
 -.02200000000000145 .015 18 207 1397 222 225 202 224 216 ?1 29 219 1556 0 224 2
21 216 .01555000070475625 -.02200000000000145 .015 18 224 1401 223 226 207 212 2
19 ?1 29 221 1560 0 212 227 219 .03080000070475625 -1434718561355586e-30 .015 18
 212 1417 229 228 224 209 221 ?1 29 227 1562 0 230 232 221 .03080000070475625 .0
483 .003 18 230 1209 235 234 231 233 227 ?1 29 232 1565 0 240 236 227 .030800000
70475625 .0543 .015 18 240 1205 238 237 239 241 232 ?1 29 236 1566 0 241 245 232
 .03080000070475625 .0483 .015 18 241 1217 242 243 240 231 236 ?1 29 245 1568 0
 231 244 236 .03380000070475625 .0543 .015 18 231 1213 247 250 241 230 245 ?1 29
 244 1573 0 239 249 245 -.01554999929524535 -.02200000000000145 .003 18 239 1104
 246 248 254 240 244 ?1 29 249 1577 0 218 255 244 -.0307999992952454 -1453212366
388832e-30 .015 18 218 1120 252 253 214 251 249 ?1 29 255 1578 0 251 258 249 -.0
307999992952454 -.02200000000000145 .015 18 251 1118 260 256 218 254 255 ?1 29 2
58 1579 0 254 259 255 -.01554999929524535 -.02200000000000145 .015 18 254 1116 2
57 261 251 239 258 ?1 29 259 1585 0 233 265 258 -.03379999929524535 .0543 .015 1
8 233 1290 263 262 230 264 259 ?1 29 265 1587 0 264 266 259 -.03079999929524535
 .0483 .015 18 264 1304 270 268 233 267 265 ?1 29 266 1588 0 267 0 265 -.0307999
9929524535 .0543 .015 18 267 1298 269 271 264 0 266 ?1 81 1 269 1299 29 267 0 0
 263 275 272 17 271 0 273 274 277 267 280 279 0 276 -15 255 273 1321 0 277 278 0
 17 274 0 273 281 271 264 276 282 0 0 +17 277 0 273 271 281 166 284 283 0 0 -17
 280 0 285 287 290 166 271 279 0 277 +16 279 1249 289 ?280 286 288 295 0 0 1 17
 276 0 291 293 268 267 274 282 0 290 -15 291 1325 0 292 294 0 17 293 0 291 292 2
76 233 290 288 0 0 -17 268 0 291 276 292 264 66 296 0 300 +16 282 1268 297 ?274
 298 299 302 0 0 1 17 290 0 285 280 262 267 293 288 0 0 +15 285 127 0 305 304 0
 17 262 0 285 290 177 233 301 303 0 309 -16 288 1246 310 ?290 279 298 307 0 0 1
 81 1 310 1248 29 288 0 0 308 289 306 16 298 1274 313 ?292 288 282 315 0 0 1 30
 255 307 1545 0 288 315 311 0 +0 .0543 .015 1 -1692413147294445e-31 0 30 315 154
6 0 298 302 307 0 +-.03379999929524535 .0513 .015 0 -1 0 30 311 1544 0 283 307 3
14 0 +-.03079999929524535 .0513 .003 0 -1 0 16 283 1285 312 ?284 299 0 311 0 0 1
 30 314 1542 0 299 311 316 0 +-.03379999929524535 .0513 .003 0 -1 0 16 299 1252
 320 ?318 282 283 314 0 0 1 30 316 1540 0 303 314 317 0 +-.03379999929524535 .05
43 .015 0 0 -1 16 303 1257 319 ?301 321 286 316 0 0 1 30 317 1538 0 286 316 295
 0 +-.03079999929524535 .0483 .015 0 0 -1 16 286 1271 325 ?281 303 279 317 0 0 1
 30 295 1537 0 279 317 323 0 +-.03079999929524535 .0543 .015 0 0 -1 30 323 1536
 0 322 295 324 0 +-.0246749992952454 -.02500000000000145 .015 1 570320046896485e
-30 0 16 322 1763 326 ?330 327 328 323 0 0 1 30 324 1534 0 327 323 329 0 +-.0231
749992952454 -.02200000000000145 .015 -1 -455009436321785e-30 0 16 327 1092 332
 ?256 335 322 324 0 0 1 30 329 1533 0 335 324 334 0 +-.0307999992952454 -.011000
00000000144 .015 -3154042683594195e-31 1 0 16 335 1095 331 ?333 336 327 329 0 0
 1 30 334 1531 0 336 329 337 0 +-.0337999992952454 -.01250000000000146 .015 0 -1
 0 16 336 1973 339 ?123 338 335 334 0 0 1 30 337 1530 0 340 334 342 0 +-.0246749
992952454 -.02500000000000145 .003 1 570320046896485e-30 0 16 340 1759 345 ?344
 341 343 337 0 0 1 30 342 1528 0 341 337 350 0 +-.0231749992952454 -.02200000000
000145 .003 -1 -455009436321785e-30 0 16 341 1054 346 ?348 347 340 342 0 0 1 30
 350 1527 0 347 342 349 0 +-.0307999992952454 -.01100000000000144 .003 -31540426
83594195e-31 1 0 16 347 1062 351 ?355 328 341 350 0 0 1 30 349 1525 0 328 350 35
2 0 +-.0337999992952454 -.01250000000000146 .003 0 -1 0 16 328 1969 353 ?127 322
 347 349 0 0 1 30 352 1522 0 338 349 354 0 +-.0307999992952454 -1453212366388832
e-30 .015 0 0 -1 16 338 1075 357 ?360 359 336 352 0 0 1 30 354 1521 0 359 352 35
6 0 +-.0307999992952454 -.02200000000000145 .015 0 0 -1 16 359 1067 358 ?364 365
 338 354 0 0 1 30 356 1520 0 365 354 362 0 +-.01554999929524535 -.02200000000000
145 .015 0 0 -1 16 365 1059 363 ?361 368 359 356 0 0 1 30 362 1518 0 370 356 366
 0 +.03380000070475625 .0513 .015 0 -1 0 16 370 1183 369 ?367 371 375 362 0 0 1
 30 366 1516 0 371 362 373 0 +.03080000070475625 .0513 .015 0 -1 0 16 371 1189 3
72 ?374 376 370 366 0 0 1 30 373 1515 0 376 366 380 0 +0 .0543 .015 1 -169241314
7294445e-31 0 16 376 1161 378 ?377 379 371 373 0 0 1 30 380 1514 0 321 373 381 0
 +.03380000070475625 .0513 .003 0 -1 0 16 321 1200 385 ?382 375 303 380 0 0 1 30
 381 1512 0 375 380 383 0 +.03080000070475625 .0513 .003 0 -1 0 16 375 1167 384
 ?387 370 321 381 0 0 1 30 383 1510 0 343 381 390 0 +.03080000070475625 .0543 .0
15 0 0 -1 16 343 1172 389 ?386 340 388 383 0 0 1 30 390 1509 0 388 383 391 0 +.0
3080000070475625 .0483 .015 0 0 -1 16 388 1180 392 ?394 343 379 390 0 0 1 30 391
 1507 0 379 390 393 0 +.03380000070475625 .0543 .015 0 0 -1 16 379 1164 395 ?397
 388 376 391 0 0 1 30 393 1505 0 400 391 399 0 +.03380000070475625 -.01250000000
000142 .015 -277555756156289e-30 -1 0 16 400 2038 396 ?132 398 405 393 0 0 1 30
 399 1504 0 398 393 401 0 +.02467500070475625 -.02500000000000145 .015 -1 -19010
6682298828e-30 0 16 398 1665 403 ?402 404 400 399 0 0 1 30 401 1502 0 404 399 40
6 0 +.02317500070475625 -.02200000000000145 .015 1 -455009436321786e-30 0 16 404
 1337 410 ?407 408 398 401 0 0 1 30 406 1501 0 408 401 409 0 +.03080000070475625
 -.01100000000000144 .015 3154042683594195e-31 1 0 16 408 1331 412 ?415 414 404
 406 0 0 1 30 409 1499 0 368 406 411 0 +.03380000070475625 -.01250000000000142 .
003 -277555756156289e-30 -1 0 16 368 2042 413 ?140 419 365 409 0 0 1 30 411 1498
 0 419 409 420 0 +.02467500070475625 -.02500000000000145 .003 -1 -19010668229882
8e-30 0 16 419 1661 417 ?418 416 368 411 0 0 1 30 420 1496 0 416 411 423 0 +.023
17500070475625 -.02200000000000145 .003 1 -455009436321786e-30 0 16 416 1392 425
 ?421 405 419 420 0 0 1 30 423 1495 0 405 420 424 0 +.03080000070475625 -.011000
00000000144 .003 3154042683594195e-31 1 0 16 405 1367 422 ?426 400 416 423 0 0 1
 30 424 1494 0 430 423 428 0 +.03080000070475625 -.02200000000000145 .015 0 0 -1
 16 430 1340 427 ?429 431 435 424 0 0 1 30 428 1493 0 435 424 433 0 +.0155500007
0475625 -.02200000000000145 .015 0 0 -1 16 435 1346 432 ?434 430 414 428 0 0 1 3
0 433 1489 0 414 428 436 0 +.03080000070475625 -1434718561355586e-30 .015 0 0 -1
 16 414 1334 440 ?437 435 408 433 0 0 1 31 436 652 0 438 433 439 0 +.01950000035
237765 -.034305 .003 0 0 1 1 0 0 .002 16 438 573 442 ?445 444 431 436 0 0 1 31 4
39 651 0 441 436 443 0 -.0300000003523775 .02595 .003 0 0 1 1 0 0 .002 16 441 53
4 446 ?447 449 444 439 0 0 1 31 443 650 0 448 439 450 0 --.0299999996476222 .025
95 .003 0 0 1 1 0 0 .002 16 448 498 452 ?455 454 449 443 0 0 1 31 450 649 0 451
 443 453 0 +-.0359999996476222 .04595 .003 0 0 1 1 0 0 .002 16 451 465 460 ?456
 458 454 450 0 0 1 31 453 648 0 457 450 459 0 +.0360000003523775 .04595 .003 0 0
 1 1 0 0 .002 16 457 429 461 ?465 462 458 453 0 0 1 31 459 647 0 463 453 464 0 +
.0360000003523775 -.03805 .003 0 0 1 1 0 0 .002 16 463 393 467 ?470 469 462 459
 0 0 1 31 464 646 0 466 459 468 0 +-.03599999964762225 -.03805 .003 0 0 1 1 0 0
 .002 16 466 357 474 ?475 472 469 464 0 0 1 31 468 645 0 473 464 471 0 +-.019499
99964762225 -.034305 .003 0 0 1 1 0 0 .002 16 473 321 478 ?480 476 472 468 0 0 1
 30 471 9 0 479 468 477 0 +0 .0543 .003 1 -1692413147294445e-31 0 16 479 2249 48
1 ?177 485 483 471 482 483 1 30 477 14 0 485 471 484 0 +-.041 0 .003 -3833643040
832725e-31 -1 0 16 485 2262 486 ?187 490 479 477 0 0 1 30 484 19 0 490 477 488 0
 +0 -.0543 .003 1 -1692413147294445e-31 0 16 490 797 487 ?199 489 485 484 0 0 1
 30 488 24 0 489 484 491 0 +.041 693889390390723e-32 .003 -3833643040832725e-31
 -1 0 16 489 2314 495 ?204 492 490 488 0 0 1 30 491 112 0 476 488 493 0 +0 .0543
 -.003 1 -1692413147294445e-31 0 16 476 2245 494 ?497 500 473 491 0 0 1 30 493 1
11 0 500 491 499 0 +-.041 0 -.003 -3833643040832725e-31 -1 0 16 500 2258 496 ?19
5 498 476 493 0 0 1 30 499 110 0 498 493 501 0 +0 -.0543 -.003 1 -16924131472944
45e-31 0 16 498 793 502 ?196 504 500 499 0 0 1 30 501 109 0 504 499 503 0 +.041
 693889390390723e-32 -.003 -3833643040832725e-31 -1 0 16 504 2318 505 ?208 482 4
98 501 0 0 1 31 503 184 0 431 501 507 0 +.01950000035237765 -.034305 -.003 0 0 1
 1 0 0 .002 16 431 576 510 ?509 438 430 503 0 0 1 31 507 191 0 444 503 506 0 -.0
300000003523775 .02595 -.003 0 0 1 1 0 0 .002 16 444 537 508 ?515 441 438 507 0
 0 1 31 506 198 0 449 507 511 0 --.0299999996476222 .02595 -.003 0 0 1 1 0 0 .00
2 16 449 501 513 ?512 448 441 506 0 0 1 31 511 205 0 454 506 514 0 +-.0359999996
476222 .04595 -.003 0 0 1 1 0 0 .002 16 454 468 516 ?520 451 448 511 0 0 1 31 51
4 212 0 458 511 517 0 +.0360000003523775 .04595 -.003 0 0 1 1 0 0 .002 16 458 43
2 518 ?519 457 451 514 0 0 1 31 517 219 0 462 514 522 0 +.0360000003523775 -.038
05 -.003 0 0 1 1 0 0 .002 16 462 396 525 ?524 463 457 517 0 0 1 31 522 226 0 469
 517 521 0 +-.03599999964762225 -.03805 -.003 0 0 1 1 0 0 .002 16 469 360 523 ?5
29 466 463 522 0 0 1 31 521 233 0 472 522 530 0 +-.01949999964762225 -.034305 -.
003 0 0 1 1 0 0 .002 16 472 324 527 ?528 473 466 521 0 0 1 30 530 720 0 492 521
 526 0 +.041 -.0443 .003 0 0 -1 16 492 718 533 ?535 531 489 530 0 0 1 30 526 733
 0 531 530 534 0 -.031 -.0543 .003 0 0 -1 16 531 731 532 ?536 540 492 526 0 0 1
 31 534 738 0 540 526 538 0 +.031 -.0443 .003 0 0 1 1 0 0 .01 16 540 736 537 ?53
9 541 531 534 0 0 1 31 538 743 0 541 534 545 0 -.031 -.0443 -.003 0 0 1 1 0 0 .0
1 16 541 741 543 ?542 544 540 538 0 0 1 30 545 789 0 544 538 546 0 +-.041 -.0443
 .003 0 0 1 16 544 787 550 ?547 548 541 545 0 0 1 30 546 802 0 548 545 549 0 --.
031 -.0543 .003 0 0 1 16 548 800 552 ?555 554 544 546 0 0 1 31 549 807 0 554 546
 551 0 --.031 -.0443 -.003 0 0 1 1 0 0 .01 16 554 805 553 ?556 557 548 549 0 0 1
 31 551 812 0 557 549 559 0 +-.031 -.0443 .003 0 0 1 1 0 0 .01 16 557 810 558 ?1
78 560 554 551 0 0 1 30 559 1670 0 560 551 562 0 +.03080000070475625 -.025000000
00000145 .015 0 0 1 16 560 1668 565 ?564 561 557 559 0 0 1 30 562 1683 0 561 559
 563 0 -.03380000070475625 -.02200000000000145 .015 0 0 1 16 561 1681 570 ?566 5
68 560 562 0 0 1 31 563 1688 0 568 562 567 0 +.03080000070475625 -.0220000000000
0145 .015 0 0 1 1 0 0 .003 16 568 1686 569 ?571 575 561 563 0 0 1 31 567 1720 0
 575 563 572 0 +.03080000070475625 -.02200000000000145 .003 0 0 1 1 0 0 .003 16
 575 1700 573 ?574 577 568 567 0 0 1 30 572 1755 0 577 567 580 0 +-.033799999295
2454 -.02200000000000145 .015 0 0 1 16 577 1753 579 ?576 578 575 572 0 0 1 30 58
0 1768 0 578 572 584 0 --.0307999992952454 -.02500000000000145 .015 0 0 1 16 578
 1766 585 ?582 583 577 580 0 0 1 31 584 1773 0 583 580 581 0 +-.0307999992952454
 -.02200000000000145 .015 0 0 1 1 0 0 .003 16 583 1771 588 ?117 590 578 584 0 0
 1 31 581 1805 0 590 584 586 0 +-.0307999992952454 -.02200000000000145 .003 0 0
 1 1 0 0 .003 16 590 1785 589 ?122 587 583 581 0 0 1 30 586 1840 0 587 581 591 0
 -.01855000070475625 -.02500000000000145 .015 0 0 1 16 587 1838 595 ?593 592 590
 586 0 0 1 31 591 1845 0 592 586 594 0 +.01855000070475625 -.02200000000000145 .
015 0 0 1 1 0 0 .003 16 592 1843 596 ?108 600 587 591 0 0 1 31 594 1877 0 600 59
1 598 0 +.01855000070475625 -.02200000000000145 .003 0 0 1 1 0 0 .003 16 600 185
7 597 ?114 599 592 594 0 0 1 30 598 1909 0 599 594 601 0 +-.0185499992952454 -.0
2500000000000145 .015 0 0 1 16 599 1907 605 ?602 603 600 598 0 0 1 31 601 1914 0
 603 598 604 0 +-.0185499992952454 -.02200000000000145 .015 0 0 1 1 0 0 .003 16
 603 1912 607 ?261 610 599 601 0 0 1 31 604 1946 0 610 601 609 0 +-.018549999295
2454 -.02200000000000145 .003 0 0 1 1 0 0 .003 16 610 1926 606 ?248 608 603 604
 0 0 1 30 609 1978 0 608 604 611 0 --.0337999992952454 -.003000000000001455 .015
 0 0 1 16 608 1976 612 ?614 613 610 609 0 0 1 31 611 1983 0 613 609 615 0 +-.030
7999992952454 -.003000000000001455 .015 0 0 1 1 0 0 .003 16 613 1981 617 ?91 620
 608 611 0 0 1 31 615 2015 0 620 611 619 0 +-.0307999992952454 -.003000000000001
455 .003 0 0 1 1 0 0 .003 16 620 1995 616 ?100 618 613 615 0 0 1 30 619 2047 0 6
18 615 625 0 +.03380000070475625 -.003000000000001435 .015 0 0 1 16 618 2045 621
 ?623 622 620 619 0 0 1 31 625 2052 0 622 619 624 0 +.03080000070475625 -.003000
000000001435 .015 0 0 1 1 0 0 .003 16 622 2050 626 ?228 630 618 625 0 0 1 31 624
 2084 0 630 625 627 0 +.03080000070475625 -.003000000000001435 .003 0 0 1 1 0 0
 .003 16 630 2064 628 ?217 629 622 624 0 0 1 30 627 2116 0 629 624 632 0 -.03380
000070475625 .0513 .015 0 0 1 16 629 2114 635 ?634 631 630 627 0 0 1 31 632 2121
 0 631 627 633 0 +.03080000070475625 .0513 .015 0 0 1 1 0 0 .003 16 631 2119 639
 ?80 640 629 632 0 0 1 31 633 2153 0 640 632 637 0 +.03080000070475625 .0513 .00
3 0 0 1 1 0 0 .003 16 640 2133 638 ?82 636 631 633 0 0 1 30 637 2185 0 636 633 6
43 0 +-.03379999929524535 .0513 .015 0 0 1 16 636 2183 645 ?641 296 640 637 0 0
 1 31 643 2190 0 296 637 644 0 +-.03079999929524535 .0513 .015 0 0 1 1 0 0 .003
 16 296 2188 642 ?268 646 636 643 0 0 1 31 644 2222 0 646 643 650 0 +-.030799999
29524535 .0513 .003 0 0 1 1 0 0 .003 16 646 2202 648 ?160 647 296 644 0 0 1 30 6
50 2254 0 647 644 649 0 +-.038 .0543 .003 0 0 1 16 647 2252 651 ?655 653 646 650
 0 0 1 30 649 2267 0 653 650 652 0 --.041 .0513 .003 0 0 1 16 653 2265 654 ?656
 660 647 649 0 0 1 31 652 2272 0 660 649 657 0 --.038 .0513 -.003 0 0 1 1 0 0 .0
03 16 660 2270 658 ?65 659 653 652 0 0 1 31 657 2277 0 659 652 662 0 +-.038 .051
3 .003 0 0 1 1 0 0 .003 16 659 2275 665 ?52 664 660 657 0 0 1 30 662 2323 0 664
 657 661 0 +.041 .0513 .003 0 0 1 16 664 2321 28 ?663 666 659 662 0 0 1 30 661 2
336 0 666 662 20 0 -.038 .0543 .003 0 0 1 16 666 2334 667 ?42 25 664 661 0 0 1 3
1 20 2341 0 25 661 8 0 -.038 .0513 -.003 0 0 1 1 0 0 .003 16 25 2339 669 ?43 11
 666 20 0 0 1 81 1 669 2370 29 25 0 0 28 667 668 17 43 0 670 208 497 36 40 25 0
 45 +15 670 75 0 497 672 675 17 208 0 670 542 43 202 674 504 0 671 +17 497 0 670
 43 65 30 673 476 0 0 +17 45 0 41 40 31 36 663 664 0 674 -15 41 2322 0 45 17 0 1
7 31 0 41 45 38 46 24 11 0 663 -17 663 0 680 204 674 46 45 664 0 33 +17 674 0 68
0 663 535 36 208 504 0 0 -15 680 121 0 674 676 0 17 535 0 680 674 204 202 678 49
2 0 0 +17 204 0 680 535 663 203 33 489 0 539 +17 678 0 677 679 671 203 535 492 0
 0 -15 677 719 0 678 681 0 17 679 0 677 685 678 194 539 540 0 536 -17 671 0 677
 678 685 202 542 541 0 535 -17 685 0 677 671 679 200 536 531 0 0 -17 542 0 670 6
82 208 200 671 541 0 685 +17 682 0 670 556 542 185 196 498 0 0 -17 556 0 670 683
 682 188 182 554 0 684 +17 196 0 687 536 555 200 682 498 0 542 +15 687 123 0 690
 689 0 17 536 0 687 690 196 194 685 531 0 0 +17 555 0 687 196 690 185 686 548 0
 682 +17 690 0 687 555 536 180 199 490 0 0 -17 686 0 688 694 182 180 555 548 0 6
90 -15 688 788 0 684 695 0 17 694 0 688 684 686 184 178 557 0 547 -17 182 0 688
 686 684 185 556 554 0 555 -17 684 0 688 182 694 188 547 544 0 0 -17 547 0 692 6
93 195 184 684 544 0 0 +15 692 125 0 693 691 0 17 693 0 692 656 547 49 187 485 0
 0 -17 195 0 692 547 656 188 683 500 0 556 +17 656 0 692 195 693 53 698 653 0 68
3 +17 683 0 670 65 556 53 195 500 0 0 -17 65 0 670 497 683 62 60 660 0 700 +17 6
0 0 696 698 700 53 65 660 0 656 -17 700 0 696 60 61 62 655 647 0 673 -15 696 225
3 0 700 699 0 17 61 0 696 700 698 59 52 659 0 655 -17 655 0 285 177 673 59 700 6
47 0 697 +17 673 0 285 655 42 62 497 476 0 0 -17 42 0 285 673 305 30 38 666 0 49
7 +17 305 0 285 42 397 12 32 482 0 0 +17 38 0 41 31 40 12 42 666 0 305 -17 397 0
 285 305 377 165 250 379 0 701 +17 32 0 35 382 24 165 305 482 0 397 -16 482 921
 705 ?305 483 504 471 483 479 1 81 1 705 2375 29 482 0 0 495 494 703 16 483 911
 702 ?287 479 482 471 479 482 1 81 1 702 1659 29 483 0 0 312 135 704 17 287 0 28
5 237 280 164 172 483 0 386 +17 237 0 285 377 287 240 386 343 0 706 -17 172 0 35
 284 169 166 287 483 0 280 -17 386 0 710 387 706 164 237 343 0 0 +15 710 1228 0
 387 708 0 17 387 0 710 707 386 230 169 375 0 394 +17 706 0 710 386 707 240 374
 371 0 709 -17 707 0 710 706 387 241 394 388 0 0 -17 374 0 711 80 709 241 706 37
1 0 707 +17 709 0 711 374 715 240 377 376 0 0 -15 711 1240 0 374 712 0 17 715 0
 711 709 80 231 367 370 0 377 -17 377 0 285 397 237 231 709 376 0 0 +17 80 0 711
 715 374 72 243 631 0 713 +17 367 0 714 634 250 72 715 370 0 0 +15 714 1236 0 36
7 717 0 17 634 0 714 701 367 77 713 629 0 382 +17 250 0 714 367 701 231 397 379
 0 715 -17 701 0 714 250 634 165 382 321 0 0 -17 382 0 35 234 32 77 701 321 0 0
 +15 35 6 0 33 720 0 17 234 0 35 169 382 230 82 640 0 387 -17 169 0 35 172 234 1
64 387 375 0 287 -17 82 0 719 713 394 77 234 640 0 634 +15 719 1232 0 394 716 0
 17 713 0 719 243 82 72 634 629 0 367 -17 394 0 719 82 243 230 707 388 0 0 +17 2
43 0 719 394 713 241 80 631 0 374 -14 255 716 2130 718 ?721 722 719 6 724 +0 0 7
21 722 22 81 1 718 2388 723 716 725 0 727 730 729 14 721 2061 730 ?726 716 728 6
 735 +0 0 726 716 22 14 722 2199 727 ?716 699 731 6 733 +0 0 716 699 22 51 724 2
154 0 716 735 733 0 +.03080000070475625 .0513 .015 0 0 -1 .003 -1 0 0 13 22 49 0
 0 0 0 0 0 10 17 14 17 2356 732 ?699 0 41 6 7 +0 0 699 0 22 81 1 732 2385 723 17
 734 0 0 736 740 14 699 2287 736 ?722 17 696 6 19 +0 0 722 17 22 81 1 736 2386 7
23 699 737 0 732 727 738 51 19 2290 0 699 733 7 0 +-.038 .0513 .003 0 0 -1 .003
 -1 0 0 51 733 2223 0 722 724 19 0 +-.03079999929524535 .0513 .015 0 0 1 .003 1
 0 0 80 7 CCCCCDI12 legal_owners0 17 1 lCZ1 723 0 739 8001 0 0 0 0 3 5 0 0 0 FFF
FTFTFFFFFFFFFF2 81 1 737 2308 29 699 0 736 481 742 745 81 1 727 2387 723 722 744
 0 736 718 741 83 255 3 738 .615686274509804 .811764705882353 .929411764705882 8
1 1 744 2240 29 722 0 727 320 743 749 83 3 741 .615686274509804 .811764705882353
 .929411764705882 80 1 29 750 747 9000 0 0 0 0 3 6 0 0 0 FFTFTFTTFFFFFFFFF1 81 1
 320 2239 29 299 0 0 313 744 748 81 1 743 2241 29 294 0 746 744 753 755 82 255 3
 749 29 0 2 14 294 1322 746 ?708 278 291 6 751 +0 0 708 278 22 81 1 746 2418 723
 294 743 0 754 752 756 81 1 753 2242 29 760 0 758 743 57 757 82 3 755 29 1 2 14
 760 1310 758 ?278 759 761 6 765 -0 0 278 759 22 81 1 758 2416 723 760 753 0 763
 754 762 81 1 57 2296 29 53 0 0 753 55 764 82 3 757 29 2 2 81 1 55 2297 29 49 0
 0 57 63 766 82 3 764 30 0 0 81 1 63 2298 29 62 0 0 55 58 770 82 3 766 30 1 0 81
 1 58 2299 29 59 0 0 63 654 767 82 3 770 30 2 0 81 1 654 2300 29 653 0 0 58 658
 768 82 3 767 30 3 0 81 1 658 2301 29 660 0 0 654 651 769 82 3 768 30 0 1 81 1 6
51 2302 29 647 0 0 658 665 772 82 3 769 30 1 1 81 1 665 2303 29 659 0 0 651 496
 775 82 3 772 30 2 1 81 1 496 2305 29 500 0 0 665 486 774 82 3 775 30 3 1 81 1 4
86 2306 29 485 0 0 496 481 771 82 3 774 30 5 1 81 1 481 2307 29 479 0 0 486 737
 773 82 3 771 30 6 1 82 3 773 30 7 1 81 1 763 2415 723 759 776 0 777 758 779 81
 1 754 2417 723 278 275 0 758 746 778 83 3 762 .615686274509804 .811764705882353
 .929411764705882 14 278 1318 754 ?294 760 273 6 780 +0 0 294 760 22 81 1 275 13
20 29 278 0 754 269 412 782 83 3 778 .615686274509804 .811764705882353 .92941176
4705882 81 1 412 1333 29 408 0 0 275 410 785 82 3 782 20 27 2 81 1 410 1339 29 4
04 0 0 412 427 784 82 3 785 20 21 1 81 1 427 1342 29 430 0 0 410 222 781 82 3 78
4 20 31 1 81 1 222 1398 29 207 0 0 427 783 790 82 3 781 20 0 1 81 1 783 1423 29
 786 0 788 222 787 789 82 3 790 20 1 0 14 786 1421 788 ?791 795 792 6 793 +0 0 7
91 795 22 81 1 788 2411 723 786 783 0 794 797 800 81 1 787 1427 29 791 0 797 783
 799 796 82 3 789 20 0 2 14 791 1425 797 ?798 786 804 6 805 +0 0 798 786 22 81 1
 797 2412 723 791 787 0 788 802 803 81 1 799 1616 29 1 0 801 787 159 808 82 3 79
6 20 7 2 81 1 801 2382 810 1 799 14 0 0 806 81 1 159 1617 29 158 0 0 799 155 809
 82 3 808 6 0 3 81 1 155 1625 29 147 0 0 159 170 807 82 3 809 21 0 0 81 1 170 16
29 29 164 0 0 155 163 811 82 3 807 21 8 0 81 1 163 1630 29 165 0 0 170 175 815 8
2 3 811 21 12 0 81 1 175 1633 29 174 0 0 163 171 813 82 3 815 21 13 0 81 1 171 1
634 29 166 0 0 175 422 812 82 3 813 21 16 0 81 1 422 1637 29 405 0 0 171 425 814
 82 3 812 21 17 0 81 1 425 1642 29 416 0 0 422 346 816 82 3 814 21 0 1 81 1 346
 1644 29 341 0 0 425 351 820 82 3 816 21 5 1 81 1 351 1645 29 347 0 0 346 384 81
8 82 3 820 21 7 1 81 1 384 1650 29 375 0 0 351 312 817 82 3 818 21 8 1 81 1 312
 1654 29 283 0 0 384 702 819 82 3 817 21 13 1 82 3 819 21 17 1 80 1 810 821 825
 8038 0 0 0 0 0 0 0 0 0 TTTTTTTTTTTTTFTFT10 81 1 14 2383 821 1 801 2 0 0 822 98
 255 6 806 80 97 114 116 32 49 80 1 821 823 824 8017 0 0 0 0 0 0 0 0 0 TTTTTTTTT
TTTTFTFT3 84 255 6 822 Part 179 255 13 824 SDL/TYSA_NAME79 14 825 SDL/TYSA_UNAME
81 1 802 2413 723 798 827 0 797 777 830 83 3 803 .615686274509804 .8117647058823
53 .929411764705882 14 798 1433 802 ?829 791 826 6 828 +0 0 829 791 22 81 1 827
 1897 29 798 0 802 831 257 832 81 1 777 2414 723 829 834 0 802 763 833 83 3 830
 .615686274509804 .811764705882353 .929411764705882 14 829 1437 777 ?759 798 835
 6 837 +0 0 759 798 22 81 1 834 2103 29 829 0 777 840 776 839 83 3 833 .61568627
4509804 .811764705882353 .929411764705882 81 1 840 2102 29 721 0 730 413 834 836
 81 1 776 2104 29 759 0 763 834 242 838 82 3 839 27 1 2 14 759 1445 763 ?760 829
 845 6 841 +0 0 760 829 22 81 1 242 2161 29 241 0 0 776 76 843 82 3 838 27 2 2 8
1 1 76 2162 29 72 0 0 242 235 842 82 3 843 28 0 0 81 1 235 2163 29 230 0 0 76 79
 844 82 3 842 28 1 0 81 1 79 2164 29 77 0 0 235 639 846 82 3 844 28 2 0 81 1 639
 2165 29 631 0 0 79 392 850 82 3 846 28 3 0 81 1 392 2166 29 388 0 0 639 635 847
 82 3 850 28 0 1 81 1 635 2167 29 629 0 0 392 638 848 82 3 847 28 1 1 81 1 638 2
168 29 640 0 0 635 369 849 82 3 848 28 2 1 81 1 369 2169 29 370 0 0 638 385 852
 82 3 849 28 3 1 81 1 385 2170 29 321 0 0 369 725 855 82 3 852 28 4 1 81 1 725 2
171 29 716 0 718 385 854 851 82 3 855 28 5 1 81 1 854 2172 29 712 0 853 725 859
 860 82 3 851 28 0 2 14 712 1237 853 ?857 717 711 6 858 +0 0 857 717 22 81 1 853
 2421 723 712 854 0 856 863 865 81 1 859 2173 29 717 0 856 854 69 861 82 3 860 2
8 1 2 14 717 1233 856 ?712 708 714 6 864 +0 0 712 708 22 81 1 856 2420 723 717 8
59 0 752 853 862 81 1 69 2230 29 67 0 0 859 270 866 82 3 861 28 2 2 81 1 270 223
1 29 264 0 0 69 71 870 82 3 866 29 0 0 81 1 71 2232 29 68 0 0 270 156 868 82 3 8
70 29 1 0 81 1 156 2233 29 152 0 0 71 642 867 82 3 868 29 2 0 81 1 642 2234 29 2
96 0 0 156 645 869 82 3 867 29 3 0 81 1 645 2235 29 636 0 0 642 325 871 82 3 869
 29 0 1 81 1 325 2236 29 286 0 0 645 648 875 82 3 871 29 1 1 81 1 648 2237 29 64
6 0 0 325 313 873 82 3 875 29 2 1 81 1 313 2238 29 298 0 0 648 320 872 82 3 873
 29 3 1 82 3 872 29 4 1 81 1 752 2419 723 708 308 0 746 856 874 83 3 862 .615686
274509804 .811764705882353 .929411764705882 14 708 1225 752 ?717 294 710 6 876 -
0 0 717 294 22 81 1 308 1227 29 708 0 752 247 310 880 83 3 874 .615686274509804
 .811764705882353 .929411764705882 81 1 247 1214 29 231 0 0 238 308 877 82 3 880
 20 20 2 81 1 238 1206 29 240 0 0 372 247 878 82 3 877 20 27 0 81 1 372 1191 29
 371 0 0 389 238 879 82 3 878 20 25 0 81 1 389 1174 29 343 0 0 395 372 882 82 3
 879 20 49 1 81 1 395 1166 29 379 0 0 378 389 885 82 3 882 20 12 1 81 1 378 1163
 29 376 0 0 884 395 881 82 3 885 20 13 1 81 1 884 1142 29 883 0 886 887 378 889
 82 3 881 20 45 1 14 883 1140 886 ?888 890 892 6 895 -0 0 888 890 22 81 1 886 24
24 723 883 884 0 894 891 893 81 1 887 1138 29 890 0 894 260 884 900 82 3 889 20
 12 2 14 890 1136 894 ?883 857 896 6 898 -0 0 883 857 22 81 1 894 2423 723 890 8
87 0 863 886 897 81 1 260 1119 29 251 0 0 331 887 899 82 3 900 20 11 2 81 1 331
 1097 29 335 0 0 332 260 901 82 3 899 20 17 0 81 1 332 1094 29 327 0 0 358 331 9
05 82 3 901 20 37 1 81 1 358 1069 29 359 0 0 902 332 903 82 3 905 20 35 1 81 1 9
02 845 29 689 0 904 907 358 910 82 3 903 20 8 1 14 689 124 904 ?676 691 687 6 90
9 -0 0 676 691 22 81 1 904 2401 723 689 902 0 906 908 914 81 1 907 843 29 695 0
 915 487 902 912 82 3 910 14 2 2 14 695 822 915 ?681 720 688 6 913 +0 0 681 720
 22 81 1 915 2396 723 695 907 0 911 918 920 81 1 487 842 29 490 0 0 502 907 916
 82 3 912 14 0 2 81 1 502 841 29 498 0 0 558 487 919 82 3 916 14 7 1 81 1 558 83
8 29 557 0 0 553 502 917 82 3 919 14 6 1 81 1 553 837 29 554 0 0 552 558 921 82
 3 917 14 3 1 81 1 552 836 29 548 0 0 550 553 925 82 3 921 14 2 1 81 1 550 835 2
9 544 0 0 176 552 923 82 3 925 14 1 1 81 1 176 834 29 180 0 0 183 550 922 82 3 9
23 14 0 1 81 1 183 833 29 185 0 0 190 176 924 82 3 922 14 3 0 81 1 190 832 29 18
4 0 0 192 183 926 82 3 924 14 2 0 81 1 192 831 29 188 0 0 930 190 928 82 3 926 1
4 1 0 81 1 930 774 29 681 0 918 537 192 927 82 3 928 14 0 0 14 681 753 918 ?672
 695 677 6 929 +0 0 672 695 22 81 1 918 2397 723 681 930 0 915 931 935 81 1 537
 769 29 540 0 0 543 930 932 82 3 927 13 0 2 81 1 543 768 29 541 0 0 533 537 933
 82 3 932 13 3 1 81 1 533 767 29 492 0 0 532 543 934 82 3 933 13 2 1 81 1 532 76
6 29 531 0 0 201 533 937 82 3 934 13 1 1 81 1 201 765 29 203 0 0 210 532 940 82
 3 937 13 0 1 81 1 210 764 29 202 0 0 193 201 939 82 3 940 13 3 0 81 1 193 763 2
9 194 0 0 198 210 936 82 3 939 13 2 0 81 1 198 762 29 200 0 0 938 193 941 82 3 9
36 13 1 0 81 1 938 707 29 942 0 944 943 198 945 82 3 941 13 0 0 14 942 484 944 ?
947 950 949 6 946 -0 0 947 950 22 81 1 944 2406 723 942 938 0 948 955 951 81 1 9
43 706 29 947 0 955 953 938 952 82 3 945 12 7 2 14 947 448 955 ?954 942 956 6 96
0 -0 0 954 942 22 81 1 955 2407 723 947 943 0 944 957 958 81 1 953 705 29 954 0
 957 959 943 962 82 3 952 12 6 2 14 954 412 957 ?965 947 964 6 961 -0 0 965 947
 22 81 1 957 2408 723 954 953 0 955 963 969 81 1 959 704 29 965 0 963 970 953 96
7 82 3 962 12 5 2 14 965 376 963 ?795 954 968 6 966 -0 0 795 954 22 81 1 963 240
9 723 965 959 0 957 794 973 81 1 970 703 29 795 0 794 975 959 971 82 3 967 12 4
 2 14 795 340 794 ?786 965 974 6 972 -0 0 786 965 22 81 1 794 2410 723 795 970 0
 963 788 976 81 1 975 702 29 980 0 978 977 970 979 82 3 971 12 3 2 14 980 592 97
8 ?981 676 985 6 983 -0 0 981 676 22 81 1 978 2403 723 980 975 0 908 982 984 81
 1 977 701 29 981 0 982 986 975 990 82 3 979 12 2 2 14 981 556 982 ?950 980 987
 6 988 +0 0 950 980 22 81 1 982 2404 723 981 977 0 978 948 989 81 1 986 700 29 9
50 0 948 460 977 992 82 3 990 12 1 2 14 950 520 948 ?942 981 995 6 994 +0 0 942
 981 22 81 1 948 2405 723 950 986 0 982 944 991 81 1 460 699 29 451 0 0 461 986
 993 82 3 992 12 0 2 81 1 461 698 29 457 0 0 467 460 996 82 3 993 12 15 1 81 1 4
67 697 29 463 0 0 474 461 997 82 3 996 12 14 1 81 1 474 696 29 466 0 0 478 467 9
99 82 3 997 12 13 1 81 1 478 695 29 473 0 0 442 474 998 82 3 999 12 12 1 81 1 44
2 694 29 438 0 0 446 478 1000 82 3 998 12 11 1 81 1 446 693 29 441 0 0 452 442 1
002 82 3 1000 12 10 1 81 1 452 692 29 448 0 0 516 446 1005 82 3 1002 12 9 1 81 1
 516 691 29 454 0 0 518 452 1004 82 3 1005 12 8 1 81 1 518 690 29 458 0 0 525 51
6 1001 82 3 1004 12 7 1 81 1 525 689 29 462 0 0 523 518 1003 82 3 1001 12 6 1 81
 1 523 688 29 469 0 0 527 525 1010 82 3 1003 12 5 1 81 1 527 687 29 472 0 0 510
 523 1006 82 3 1010 12 4 1 81 1 510 686 29 431 0 0 508 527 1008 82 3 1006 12 3 1
 81 1 508 685 29 444 0 0 513 510 1007 82 3 1008 12 2 1 81 1 513 684 29 449 0 0 0
 508 1009 82 3 1007 12 1 1 82 3 1009 12 0 1 83 3 991 .615686274509804 .811764705
882353 .929411764705882 15 995 518 0 1011 950 1015 51 994 639 0 950 946 988 0 --
.0299999996476222 .02595 .016 500630498287181e-60 405112969112591e-46 -1 .002 0
 1 405112969112591e-46 51 946 642 0 942 837 994 0 +-.0359999996476222 .04595 .01
6 500630498287181e-60 405112969112591e-46 -1 .002 0 1 405112969112591e-46 51 988
 636 0 981 994 972 0 -.0300000003523775 .02595 .016 500630498287181e-60 40511296
9112591e-46 -1 .002 0 1 405112969112591e-46 51 972 633 0 795 988 966 0 +-.019499
99964762225 -.034305 .016 500630498287181e-60 405112969112591e-46 -1 .002 0 1 40
5112969112591e-46 51 966 630 0 965 972 961 0 +-.03599999964762225 -.03805 .016 5
00630498287181e-60 405112969112591e-46 -1 .002 0 1 405112969112591e-46 51 961 62
7 0 954 966 960 0 +.0360000003523775 -.03805 .016 500630498287181e-60 4051129691
12591e-46 -1 .002 0 1 405112969112591e-46 51 960 624 0 947 961 983 0 +.036000000
3523775 .04595 .016 500630498287181e-60 405112969112591e-46 -1 .002 0 1 40511296
9112591e-46 51 983 621 0 980 960 1012 0 +.01950000035237765 -.034305 .016 500630
498287181e-60 405112969112591e-46 -1 .002 0 1 405112969112591e-46 50 255 1012 3
 0 720 983 1013 0 +693889390390723e-32 -693889390390723e-32 .003 0 0 1 1 0 0 14
 720 1 911 ?695 1014 1017 6 1012 +0 0 695 1014 22 50 1013 108 0 672 1012 1020 0
 +693889390390723e-32 -693889390390723e-32 -.003 0 0 1 1 0 0 14 672 68 931 ?304
 681 1019 6 1013 -0 0 304 681 22 50 1020 129 0 676 1013 909 0 +.041 693889390390
723e-32 .003 1 -3833643040832725e-31 0 3833643040832725e-31 1 0 14 676 122 908 ?
980 689 680 6 1020 +0 0 980 689 22 50 909 130 0 689 1020 1016 0 +0 -.0543 .003 1
692413147294445e-31 1 0 -1 1692413147294445e-31 0 50 1016 131 0 691 909 1018 0 +
-.041 0 .003 1 -3833643040832725e-31 0 3833643040832725e-31 1 0 14 691 126 906 ?
689 304 692 6 1016 -0 0 689 304 22 50 1018 132 0 304 1016 929 0 +0 .0543 .003 16
92413147294445e-31 1 0 -1 1692413147294445e-31 0 14 304 128 1024 ?691 672 285 6
 1018 +0 0 691 672 22 51 929 756 0 681 1018 913 0 +.031 -.0443 .003 0 0 1 .01 1
 0 0 51 913 825 0 695 929 1025 0 +-.031 -.0443 .003 0 0 1 .01 1 0 0 51 1025 1721
 0 1014 913 1022 0 +.03080000070475625 -.02200000000000145 .015 0 0 1 .003 1 0 0
 14 1014 1697 1023 ?720 1021 1028 6 1025 +0 0 720 1021 22 51 1022 1806 0 1021 10
25 1030 0 +-.0307999992952454 -.02200000000000145 .015 0 0 1 .003 1 0 0 14 1021
 1782 1026 ?1014 1029 1027 6 1022 +0 0 1014 1029 22 51 1030 1878 0 1029 1022 103
1 0 +.01855000070475625 -.02200000000000145 .015 0 0 1 .003 1 0 0 14 1029 1854 1
035 ?1021 1033 1032 6 1030 +0 0 1021 1033 22 51 1031 1947 0 1033 1030 1034 0 +-.
0185499992952454 -.02200000000000145 .015 0 0 1 .003 1 0 0 14 1033 1923 1036 ?10
29 726 1040 6 1031 +0 0 1029 726 22 51 1034 2016 0 726 1031 735 0 +-.03079999929
52454 -.003000000000001455 .015 0 0 1 .003 1 0 0 14 726 1992 1038 ?1033 721 1037
 6 1034 +0 0 1033 721 22 51 735 2085 0 721 1034 724 0 +.03080000070475625 -.0030
00000000001435 .015 0 0 1 .003 1 0 0 81 1 1038 2390 723 726 1039 0 730 1036 1041
 15 1037 1147 0 360 726 0 17 360 0 1037 100 253 148 1045 338 0 0 +17 100 0 1037
 1042 360 94 149 620 0 614 +17 253 0 1037 360 1042 218 91 613 0 333 -17 1045 0 8
92 1043 355 218 360 338 0 0 -15 892 1143 0 355 883 0 17 1043 0 892 364 1045 251
 333 335 0 0 -17 355 0 892 1045 364 148 153 347 0 360 +17 364 0 892 355 1043 147
 1044 359 0 0 +17 153 0 1047 1050 149 147 355 347 0 348 -15 1047 989 0 1049 720
 1046 17 1050 0 1047 101 153 239 348 341 0 361 -17 149 0 1047 153 1048 148 100 6
20 0 355 -17 348 0 896 1044 361 147 1050 341 0 364 +15 896 1139 0 348 890 0 17 1
044 0 896 1051 348 251 364 359 0 1043 -17 361 0 896 348 1051 239 1052 365 0 0 +1
7 1051 0 896 361 1044 254 256 327 0 0 -17 1052 0 1040 104 248 254 361 365 0 1051
 -15 1040 1908 0 1054 1033 0 17 104 0 1040 1054 1052 105 261 603 0 602 -17 248 0
 1040 1052 1054 239 101 610 0 1050 +17 1054 0 1040 248 104 98 602 599 0 344 -17
 101 0 1047 1049 1050 98 248 610 0 1054 -17 1049 0 1047 1053 101 119 344 340 0 0
 -17 1053 0 1047 1048 1049 130 122 590 0 1055 -17 344 0 1057 602 582 98 1049 340
 0 0 +15 1057 1131 0 344 857 0 17 602 0 1057 1060 344 105 1054 599 0 330 +17 582
 0 1057 344 1060 119 1059 578 0 1049 +17 1060 0 1057 582 602 111 330 322 0 0 -17
 1059 0 1027 1056 122 111 582 578 0 1060 -15 1027 1754 0 1055 1021 0 17 1056 0 1
027 1055 1059 125 117 583 0 576 -17 122 0 1027 1059 1055 119 1053 590 0 582 +17
 1055 0 1027 122 1056 130 576 577 0 0 -17 576 0 1058 1065 127 125 1055 577 0 0 +
15 1058 1151 0 1065 888 0 17 1065 0 1058 614 576 86 123 336 0 0 -17 127 0 1058 5
76 614 130 1048 328 0 1053 +17 614 0 1058 127 1065 94 1042 608 0 1048 +17 1048 0
 1047 149 1053 94 127 328 0 0 -17 1042 0 1037 253 100 86 614 608 0 1065 -17 123
 0 1061 117 91 125 1065 336 0 1056 +15 1061 1155 0 333 1063 0 17 117 0 1061 330
 123 111 1056 583 0 1059 +17 91 0 1061 123 333 86 253 613 0 1042 +17 333 0 1061
 91 256 218 1043 335 0 1045 +17 256 0 1061 333 261 251 1051 327 0 1044 +17 261 0
 1061 256 330 254 104 603 0 1052 +17 330 0 1061 261 117 105 1060 322 0 0 +14 106
3 1152 1062 ?0 888 1061 6 1064 +0 0 0 888 22 81 1 1062 2426 723 1063 1066 0 891
 0 1070 14 888 1148 891 ?1063 883 1058 6 1067 -0 0 1063 883 22 50 1064 1482 0 10
63 780 1067 0 +693889390390723e-32 693889390390723e-32 .015 0 0 1 1 0 0 50 780 1
483 0 278 765 1064 0 +-.03079999929524535 .0513 .015 1 0 0 0 0 -1 50 1067 1480 0
 888 1064 895 0 +-.0337999992952454 -.01250000000000146 .015 1 0 0 0 0 -1 50 895
 1478 0 883 1067 898 0 +-.0307999992952454 -.01100000000000144 .015 -1 -31540426
83594195e-31 0 3154042683594195e-31 -1 0 50 898 1477 0 890 895 1068 0 +-.0231749
992952454 -.02200000000000145 .015 455009436321785e-30 -1 0 1 455009436321785e-3
0 0 50 1068 1475 0 857 898 858 0 +-.0246749992952454 -.02500000000000145 .015 -5
70320046896485e-30 1 0 -1 -570320046896485e-30 0 14 857 1128 863 ?890 712 1057 6
 1068 -0 0 890 712 22 50 858 1474 0 712 1068 876 0 +693889390390723e-32 69388939
0390723e-32 .015 0 0 1 1 0 0 50 876 1471 0 708 858 864 0 +.03080000070475625 .05
13 .015 1 0 0 0 0 -1 50 864 1469 0 717 876 841 0 +.03380000070475625 .0513 .015
 1 0 0 0 0 -1 50 841 1468 0 759 864 793 0 +693889390390723e-32 693889390390723e-
32 .015 0 0 1 1 0 0 50 793 1466 0 786 841 805 0 +.03080000070475625 -.0110000000
0000144 .015 -1 315404268359419e-30 0 -315404268359419e-30 -1 0 50 805 1465 0 79
1 793 828 0 +.02317500070475625 -.02200000000000145 .015 455009436321786e-30 1 0
 -1 455009436321786e-30 0 50 828 1463 0 798 805 837 0 +.02467500070475625 -.0250
0000000000145 .015 190106682298828e-30 -1 0 1 190106682298828e-30 0 50 837 1462
 0 829 828 946 0 +.03380000070475625 -.01250000000000142 .015 1 -277555756156289
e-30 0 277555756156289e-30 1 0 81 1 863 2422 723 857 1069 0 853 894 1072 81 1 10
69 1966 29 857 0 863 1075 252 1074 83 3 1072 .615686274509804 .811764705882353 .
929411764705882 81 1 1075 1964 29 1033 0 1036 345 1069 1071 81 1 252 2023 29 218
 0 0 1069 146 1073 82 3 1074 25 2 2 81 1 146 2024 29 148 0 0 252 95 1079 82 3 10
73 26 0 0 81 1 95 2025 29 86 0 0 146 96 1080 82 3 1079 26 1 0 81 1 96 2026 29 94
 0 0 95 357 1077 82 3 1080 26 2 0 81 1 357 2027 29 338 0 0 96 612 1078 82 3 1077
 26 3 0 81 1 612 2028 29 608 0 0 357 617 1076 82 3 1078 26 0 1 81 1 617 2029 29
 613 0 0 612 616 1083 82 3 1076 26 1 1 81 1 616 2030 29 620 0 0 617 339 1085 82
 3 1083 26 2 1 81 1 339 2031 29 336 0 0 616 353 1081 82 3 1085 26 3 1 81 1 353 2
032 29 328 0 0 339 1039 1084 82 3 1081 26 4 1 81 1 1039 2033 29 726 0 1038 353 1
082 1086 82 3 1084 26 5 1 81 1 1082 2034 29 888 0 891 1039 1066 1090 82 3 1086 2
6 0 2 81 1 891 2425 723 888 1082 0 886 1062 1088 81 1 1066 2035 29 1063 0 1062 1
082 229 1087 82 3 1090 26 1 2 81 1 229 2092 29 212 0 0 1066 220 1089 82 3 1087 2
6 2 2 81 1 220 2093 29 214 0 0 229 87 1091 82 3 1089 27 0 0 81 1 87 2094 29 89 0
 0 220 81 1095 82 3 1091 27 1 0 81 1 81 2095 29 85 0 0 87 440 1093 82 3 1095 27
 2 0 81 1 440 2096 29 414 0 0 81 621 1092 82 3 1093 27 3 0 81 1 621 2097 29 618
 0 0 440 626 1094 82 3 1092 27 0 1 81 1 626 2098 29 622 0 0 621 628 1096 82 3 10
94 27 1 1 81 1 628 2099 29 630 0 0 626 396 1100 82 3 1096 27 2 1 81 1 396 2100 2
9 400 0 0 628 413 1097 82 3 1100 27 3 1 81 1 413 2101 29 368 0 0 396 840 1098 82
 3 1097 27 4 1 82 3 1098 27 5 1 83 3 1088 .615686274509804 .811764705882353 .929
411764705882 81 1 1036 2391 723 1033 1075 0 1038 1035 1099 81 1 345 1963 29 340
 0 0 326 1075 1102 82 3 1071 25 0 2 81 1 326 1962 29 322 0 0 606 345 1105 82 3 1
102 25 5 1 81 1 606 1961 29 610 0 0 605 326 1104 82 3 1105 25 4 1 81 1 605 1960
 29 599 0 0 607 606 1101 82 3 1104 25 3 1 81 1 607 1959 29 603 0 0 363 605 1103
 82 3 1101 25 2 1 81 1 363 1958 29 365 0 0 99 607 1106 82 3 1103 25 1 1 81 1 99
 1957 29 98 0 0 102 363 1107 82 3 1106 25 0 1 81 1 102 1956 29 105 0 0 246 99 11
09 82 3 1107 25 3 0 81 1 246 1955 29 239 0 0 257 102 1108 82 3 1109 25 2 0 81 1
 257 1954 29 254 0 0 827 246 1110 82 3 1108 25 1 0 82 3 1110 25 0 0 81 1 1035 23
92 723 1029 831 0 1036 1026 1112 83 3 1099 .615686274509804 .811764705882353 .92
9411764705882 81 1 831 1895 29 1029 0 1035 417 827 1115 81 1 1026 2393 723 1021
 1114 0 1035 1023 1111 83 3 1112 .615686274509804 .811764705882353 .929411764705
882 81 1 1114 1825 29 1021 0 1026 589 223 1113 81 1 1023 2394 723 1014 1120 0 10
26 911 1116 83 3 1111 .615686274509804 .811764705882353 .929411764705882 81 1 11
20 1740 29 1014 0 1023 573 121 1118 81 1 911 2395 723 720 1117 0 1023 915 1119 8
3 3 1116 .615686274509804 .811764705882353 .929411764705882 81 1 1117 2381 29 72
0 0 911 1121 0 1125 83 3 1119 .615686274509804 .811764705882353 .929411764705882
 81 1 1121 2380 29 304 0 1024 1122 1117 1123 82 3 1125 31 4 2 81 1 1024 2399 723
 304 1121 0 931 906 1124 81 1 1122 2379 29 672 0 931 1127 1121 1130 82 3 1123 31
 3 2 81 1 931 2398 723 672 1122 0 918 1024 1129 81 1 1127 2378 29 676 0 908 734
 1122 1126 82 3 1130 31 2 2 81 1 908 2402 723 676 1127 0 904 978 1128 81 1 734 2
377 29 17 0 732 494 1127 1134 82 3 1126 31 1 2 81 1 494 2376 29 476 0 0 705 734
 1135 82 3 1134 31 0 2 82 3 1135 31 7 1 83 3 1128 .615686274509804 .811764705882
353 .929411764705882 83 3 1129 .615686274509804 .811764705882353 .92941176470588
2 81 1 906 2400 723 691 742 0 1024 904 1132 83 3 1124 .615686274509804 .81176470
5882353 .929411764705882 81 1 742 2309 29 691 0 906 737 44 1133 83 3 1132 .61568
6274509804 .811764705882353 .929411764705882 81 1 44 2365 29 36 0 0 742 39 1131
 82 3 1133 30 1 2 81 1 39 2366 29 46 0 0 44 26 1138 82 3 1131 31 0 0 82 3 1138 3
1 1 0 81 1 573 1735 29 575 0 0 565 1120 1140 81 1 121 1813 29 125 0 0 1120 116 1
136 82 3 1118 22 0 2 81 1 116 1814 29 111 0 0 121 128 1139 82 3 1136 23 0 0 81 1
 128 1815 29 130 0 0 116 120 1137 82 3 1139 23 1 0 81 1 120 1816 29 119 0 0 128
 588 1141 82 3 1137 23 2 0 81 1 588 1817 29 583 0 0 120 579 1145 82 3 1141 23 3
 0 81 1 579 1818 29 577 0 0 588 585 1143 82 3 1145 23 0 1 81 1 585 1819 29 578 0
 0 579 589 1142 82 3 1143 23 1 1 81 1 589 1820 29 590 0 0 585 1114 1144 82 3 114
2 23 2 1 82 3 1144 23 3 1 81 1 565 1734 29 560 0 0 570 573 1146 82 3 1140 22 3 1
 81 1 570 1733 29 561 0 0 569 565 1150 82 3 1146 22 2 1 81 1 569 1732 29 568 0 0
 143 570 1148 82 3 1150 22 1 1 81 1 143 1731 29 145 0 0 137 569 1147 82 3 1148 2
2 0 1 81 1 137 1730 29 133 0 0 138 143 1149 82 3 1147 22 3 0 81 1 138 1729 29 13
9 0 0 135 137 1151 82 3 1149 22 2 0 81 1 135 1728 29 129 0 0 702 138 1155 82 3 1
151 22 1 0 82 3 1155 22 0 0 81 1 223 1885 29 224 0 0 1114 215 1152 82 3 1113 23
 0 2 81 1 215 1886 29 209 0 0 223 107 1153 82 3 1152 24 0 0 81 1 107 1887 29 106
 0 0 215 115 1154 82 3 1153 24 1 0 81 1 115 1888 29 109 0 0 107 432 1157 82 3 11
54 24 2 0 81 1 432 1889 29 435 0 0 115 596 1160 82 3 1157 24 3 0 81 1 596 1890 2
9 592 0 0 432 595 1159 82 3 1160 24 0 1 81 1 595 1891 29 587 0 0 596 597 1156 82
 3 1159 24 1 1 81 1 597 1892 29 600 0 0 595 403 1158 82 3 1156 24 2 1 81 1 403 1
893 29 398 0 0 597 417 1161 82 3 1158 24 3 1 81 1 417 1894 29 419 0 0 403 831 11
62 82 3 1161 24 4 1 82 3 1162 24 5 1 82 3 1115 24 0 2 50 765 1485 0 760 751 780
 0 +-.03379999929524535 .0513 .015 1 0 0 0 0 -1 50 751 1488 0 294 0 765 0 +69388
9390390723e-32 693889390390723e-32 .015 0 0 1 1 0 0 83 3 1070 .615686274509804 .
811764705882353 .929411764705882 15 1046 281 0 1164 720 1163 17 1164 0 1046 1164
 1164 0 480 473 0 0 -15 1163 275 0 1165 720 1167 17 1165 0 1163 1165 1165 0 475
 466 0 0 -15 1167 269 0 1170 720 1169 17 1170 0 1167 1170 1170 0 470 463 0 0 -15
 1169 263 0 1166 720 1168 17 1166 0 1169 1166 1166 0 465 457 0 0 -15 1168 257 0
 1175 720 1171 17 1175 0 1168 1175 1175 0 456 451 0 0 -15 1171 244 0 447 720 117
3 17 447 0 1171 447 447 0 1172 441 0 0 +15 1173 239 0 1174 720 1176 17 1174 0 11
73 1174 1174 0 445 438 0 0 -15 1176 250 0 455 720 35 17 455 0 1176 455 455 0 101
1 448 0 0 +17 1011 0 995 1011 1011 0 455 448 0 0 -17 445 0 985 445 445 0 1174 43
8 0 0 +15 985 590 0 445 980 1180 15 1180 591 0 1177 980 0 17 1177 0 1180 1177 11
77 0 509 431 0 0 -17 509 0 1178 509 509 0 1177 431 0 0 +15 1178 182 0 509 672 67
0 17 1172 0 987 1172 1172 0 447 441 0 0 -15 987 554 0 1172 981 1179 15 1179 555
 0 515 981 0 17 515 0 1179 515 515 0 1182 444 0 0 +17 1182 0 675 1182 1182 0 515
 444 0 0 -15 675 190 0 1182 672 1185 15 1185 197 0 1184 672 0 17 1184 0 1185 118
4 1184 0 512 449 0 0 -17 512 0 1015 512 512 0 1184 449 0 0 +15 1015 519 0 512 95
0 0 17 456 0 949 456 456 0 1175 451 0 0 +15 949 482 0 456 942 1181 15 1181 483 0
 1183 942 0 17 1183 0 1181 1183 1183 0 520 454 0 0 -17 520 0 1189 520 520 0 1183
 454 0 0 +15 1189 203 0 520 672 1178 17 465 0 956 465 465 0 1166 457 0 0 +15 956
 446 0 465 947 1190 15 1190 447 0 1187 947 0 17 1187 0 1190 1187 1187 0 519 458
 0 0 -17 519 0 1188 519 519 0 1187 458 0 0 +15 1188 210 0 519 672 1189 17 470 0
 964 470 470 0 1170 463 0 0 +15 964 410 0 470 954 1186 15 1186 411 0 1193 954 0
 17 1193 0 1186 1193 1193 0 524 462 0 0 -17 524 0 1195 524 524 0 1193 462 0 0 +1
5 1195 217 0 524 672 1188 17 475 0 968 475 475 0 1165 466 0 0 +15 968 374 0 475
 965 1191 15 1191 375 0 1194 965 0 17 1194 0 1191 1194 1194 0 529 469 0 0 -17 52
9 0 1192 529 529 0 1194 469 0 0 +15 1192 224 0 529 672 1195 17 480 0 974 480 480
 0 1164 473 0 0 +15 974 338 0 480 795 1196 15 1196 339 0 1200 795 0 17 1200 0 11
96 1200 1200 0 528 472 0 0 -17 528 0 1019 528 528 0 1200 472 0 0 +15 1019 231 0
 528 672 1192 81 1 730 2389 723 721 840 0 718 1038 1198 83 3 1041 .6156862745098
04 .811764705882353 .929411764705882 83 3 1198 .615686274509804 .811764705882353
 .929411764705882 15 1032 1432 0 434 1029 0 17 434 0 1032 114 226 209 1197 435 0
 1199 +17 114 0 1032 1201 434 109 213 600 0 593 +17 226 0 1032 434 1201 224 108
 592 0 1197 -17 1197 0 804 407 1199 224 434 435 0 1205 -17 1199 0 804 1197 429 2
09 421 416 0 0 -15 804 1428 0 1199 791 0 17 429 0 804 1199 407 158 225 430 0 421
 +17 421 0 1017 426 213 158 1199 416 0 0 +15 1017 2086 0 83 720 1047 17 426 0 10
17 83 421 214 161 405 0 0 +17 213 0 1017 421 418 209 114 600 0 434 -17 418 0 101
7 213 141 109 1203 419 0 0 +17 141 0 1017 418 140 145 574 575 0 1202 -17 1203 0
 826 564 593 145 418 419 0 0 -15 826 1436 0 402 798 0 17 564 0 826 402 1203 139
 1202 560 0 1204 +17 593 0 826 1203 402 109 1201 587 0 418 +17 402 0 826 593 564
 106 1204 398 0 0 +17 1201 0 1032 226 114 106 593 587 0 402 -17 1204 0 845 571 1
08 139 402 398 0 0 -15 845 1448 0 1206 759 0 17 571 0 845 1206 1204 129 144 568
 0 1210 +17 108 0 845 1204 1205 106 226 592 0 1201 +17 1205 0 845 108 1207 224 4
07 404 0 0 -17 1207 0 845 1205 228 207 415 408 0 0 -17 407 0 804 429 1197 207 12
05 404 0 1207 +17 228 0 845 1207 1206 212 88 622 0 1208 +17 415 0 792 437 225 21
2 1207 408 0 0 +15 792 1424 0 161 786 0 17 437 0 792 161 415 214 1208 414 0 426
 +17 225 0 792 415 161 207 429 430 0 407 -17 161 0 792 225 437 158 426 405 0 429
 -17 1208 0 728 88 217 212 437 414 0 415 -15 728 2046 0 1209 721 0 17 88 0 728 1
209 1208 89 228 622 0 623 -17 217 0 728 1208 1209 214 83 630 0 437 +17 1209 0 72
8 217 88 85 623 618 0 1212 -17 83 0 1017 140 426 85 217 630 0 1209 -17 140 0 101
7 141 83 133 1212 368 0 574 +17 1212 0 835 623 566 85 140 368 0 0 -17 574 0 1028
 1210 1202 133 141 575 0 566 +15 1028 1669 0 1202 1014 0 17 1210 0 1028 144 574
 129 566 561 0 0 -17 1202 0 1028 574 144 145 564 560 0 1203 -17 566 0 835 1212 1
32 133 1210 561 0 0 +15 835 1440 0 1212 829 0 17 132 0 835 566 623 129 1206 400
 0 571 +17 623 0 835 132 1212 89 1209 618 0 1206 +17 1206 0 845 228 571 89 132 4
00 0 0 -17 144 0 1028 1202 1210 139 571 568 0 564 -83 3 989 .615686274509804 .81
1764705882353 .929411764705882 83 3 984 .615686274509804 .811764705882353 .92941
1764705882 83 3 976 .615686274509804 .811764705882353 .929411764705882 83 3 973
 .615686274509804 .811764705882353 .929411764705882 83 3 969 .615686274509804 .8
11764705882353 .929411764705882 83 3 958 .615686274509804 .811764705882353 .9294
11764705882 83 3 951 .615686274509804 .811764705882353 .929411764705882 83 3 935
 .615686274509804 .811764705882353 .929411764705882 83 3 920 .615686274509804 .8
11764705882353 .929411764705882 83 3 914 .615686274509804 .811764705882353 .9294
11764705882 83 3 897 .615686274509804 .811764705882353 .929411764705882 83 3 893
 .615686274509804 .811764705882353 .929411764705882 83 3 865 .615686274509804 .8
11764705882353 .929411764705882 82 3 836 27 0 2 82 3 832 24 2 2 83 3 800 .615686
274509804 .811764705882353 .929411764705882 83 3 779 .615686274509804 .811764705
882353 .929411764705882 15 761 1313 0 318 760 0 17 318 0 761 641 301 68 1215 299
 0 0 +17 641 0 761 309 318 67 1214 636 0 292 +17 301 0 761 318 309 174 262 303 0
 0 +17 1215 0 35 697 73 174 318 299 0 301 -17 697 0 35 52 1215 59 177 479 0 0 -1
7 73 0 35 1215 284 68 160 646 0 1214 -17 284 0 35 73 172 152 277 283 0 281 +17 1
60 0 731 300 1214 152 73 646 0 284 +17 1214 0 731 160 66 68 641 636 0 318 -15 73
1 2184 0 1214 722 0 17 66 0 731 1214 300 67 268 296 0 641 -17 300 0 731 66 160 2
64 281 286 0 274 -17 281 0 273 277 274 152 300 286 0 0 +17 52 0 35 187 697 49 61
 659 0 698 +17 177 0 285 262 655 174 697 479 0 1215 +17 187 0 35 178 52 184 693
 485 0 694 +17 698 0 696 61 60 49 656 653 0 693 -17 178 0 35 199 187 180 694 557
 0 686 +17 199 0 35 539 178 194 690 490 0 679 +17 539 0 35 33 199 203 679 540 0
 678 +17 33 0 35 24 539 46 204 489 0 0 -17 309 0 761 301 641 233 292 298 0 293 -
17 292 0 291 268 293 67 309 298 0 0 +83 3 756 .615686274509804 .811764705882353
 .929411764705882 82 3 748 29 5 1 79 9 747 BTI/DetId82 3 745 30 0 2 79 15 739 SD
L/TYSA_COLOUR83 3 740 .615686274509804 .811764705882353 .929411764705882 83 3 72
9 .615686274509804 .811764705882353 .929411764705882 82 3 704 21 20 1 81 1 495 2
374 29 489 0 0 505 705 1211 82 3 703 31 6 1 81 1 505 2373 29 504 0 0 23 495 1213
 82 3 1211 31 5 1 81 1 23 2372 29 11 0 0 667 505 1216 82 3 1213 31 4 1 81 1 667
 2371 29 666 0 0 669 23 1217 82 3 1216 31 3 1 82 3 1217 31 2 1 81 1 28 2369 29 6
64 0 0 27 669 1219 82 3 668 31 1 1 82 3 1219 31 0 1 81 1 319 1259 29 303 0 0 289
 297 1218 81 1 289 1251 29 279 0 0 310 319 1220 81 1 297 1270 29 282 0 0 319 263
 1222 82 3 1218 20 16 1 81 1 263 1291 29 233 0 0 297 269 1225 82 3 1222 20 59 1
 82 3 1225 20 33 0 82 3 1220 20 17 1 30 302 1548 0 282 0 315 0 +-.03079999929524
535 .0513 .015 0 -1 0 82 3 306 20 53 1 82 3 272 20 35 0 82 3 37 31 2 0 82 3 34 3
1 3 0 19 18 138 0 1 0 10 6 0 S0 74 4 CI16 index_map_offset0 0 1 dCCZ20 16 5 0 0
 1117 801 14 2 1062 0 0 0 0 0 0 0 0 0 0 0 0 0 0 0 80 1 13 723 1224 8040 0 0 0 0
 3 5 0 0 0 TTTFFFFFFFFFFFFFF2 83 3 15 .615686274509804 .811764705882353 .9294117
64705882 79 17 1224 SDL/TYSA_COLOUR_21 0 
