**ABCDEFGHIJKLMNOPQRSTUVWXYZabcdefghijklmnopqrstuvwxyz**************************
**PARASOLID !"#$%&'()*+,-./:;<=>?@[\]^_`{|}~0123456789**************************
**PART1;
MC=unknown;
MC_MODEL=unknown;
MC_ID=unknown;
OS=unknown;
OS_RELEASE=unknown;
FRU=Parasolid 37.1.212;
APPL=Onshape;
SITE=unknown;
USER=unknown;
FORMAT=text;
GUISE=transmit;
KEY=BTGapi::writeModels_.xmt;
FILE=BTGapi::writeModels_.xmt;
DATE=2026-07-08T19:34:30 (UTC);
**PART2;
SCH=SCH_3701212_37102;
USFLD_SIZE=0;
**PART3;
**END_OF_HEADER*****************************************************************
T51 : TRANSMIT FILE created by modeller version 370121223 SCH_3701212_37102_1300
6239 0 12 36 CCCI7 lattice222 0 CCCI4 mesh1006 0 I8 polyline1008 0 CCCCCCCDI5 ow
ner1040 0 CCCI16 boundary_lattice222 0 CCCI13 boundary_mesh1006 0 I17 boundary_p
olyline1008 0 CCCA16 index_map_offset0 0 1 dA9 index_map82 0 A17 node_id_index_m
ap82 0 A20 schema_embedding_map82 0 A5 child12 0 A14 lowest_node_id0 0 1 dA16 me
sh_offset_data206 0 Z1 2555 2 3 0 0 0 0 0 0 0 1e3 1e-8 0 4 5 1 0 1 2 6 0 7 8 9 0
 0 10 11 12 0 0 0 0 0 0 0 81 255 1 2 2527 13 1 14 0 0 0 15 70 11 CI9 list_type0
 0 1 uI10 notransmit0 0 1 lCCCDCCDI12 finger_index0 0 1 dI12 finger_block1012 0
 CZ3 0 4 T1 0 0 5 20 1 16 16 13 255 6 137 0 1 0 17 0 0 18 0 51 255 7 2500 0 17 1
9 0 0 +-.025 .02635000038015995 -.0235 0 0 -1 .003 -1 0 0 31 255 8 2499 0 11 20
 0 0 +-.025 .02635000038015995 .0015 0 0 1 1 0 0 .003 29 255 9 2444 0 12 21 0 -.
022 .02635000038015995 .0015 19 9 CCCCCCI5 frame230 0 CA5 owner12 0 Z10 48 0 1 1
8 0 22 0 V0 16 255 11 2479 23 ?24 0 25 8 0 0 1 18 255 12 2441 27 30 0 29 9 ?1 81
 1 27 2509 26 12 0 0 28 34 35 17 255 30 0 32 33 31 12 24 11 0 38 -18 29 2437 28
 40 12 36 21 ?1 81 1 28 2508 26 29 0 0 39 27 37 17 40 0 41 38 45 29 43 25 0 42 +
18 36 2428 34 43 29 44 46 ?1 29 21 2440 0 29 46 9 -.022 .02635000038015995 -.001
5 29 46 2431 0 36 50 21 -.025 .02935000038015995 -.0015 29 50 2427 0 44 48 46 -.
025 .02935000038015995 .0015 18 44 2424 47 24 36 49 50 ?1 29 48 2375 0 49 51 50
 -.027 .02935000038015995 .0015 18 49 2372 55 52 44 53 48 ?1 29 51 2371 0 53 54
 48 -.027 .02935000038015995 -.0015 18 53 2368 57 60 49 59 51 ?1 29 54 2362 0 59
 56 51 -.03 .03235000038015995 -.0015 18 59 2359 58 61 53 62 54 ?1 29 56 2358 0
 62 64 54 -.03 .03235000038015995 .0015 18 62 2355 63 65 59 67 56 ?1 29 64 2274
 0 67 70 56 -.025 -.02934999961984045 .0015 18 67 2271 69 66 62 68 64 ?1 29 70 2
270 0 68 75 64 -.025 -.02934999961984045 -.0015 18 68 2267 71 73 67 72 70 ?1 29
 75 2261 0 72 74 70 -.022 -.02634999961984045 .0015 18 72 2258 76 33 68 80 75 ?1
 29 74 2257 0 80 77 75 -.022 -.02634999961984045 -.0015 18 80 2254 78 79 72 82 7
4 ?1 29 77 2205 0 82 85 74 -.027 -.02934999961984045 -.0015 18 82 2202 84 81 80
 83 77 ?1 29 85 2201 0 83 89 77 -.027 -.02934999961984045 .0015 18 83 2198 90 87
 82 88 85 ?1 29 89 2192 0 88 86 85 -.03 -.0323499996198405 .0015 18 88 2189 93 9
5 83 91 89 ?1 29 86 2188 0 91 94 89 -.03 -.0323499996198405 -.0015 18 91 2185 92
 96 88 100 86 ?1 29 94 2107 0 100 98 86 .06 -.055 -.0015 18 100 2104 97 99 91 10
1 94 ?1 29 98 2103 0 101 105 94 .06 -.055 .0015 18 101 2100 103 102 100 104 98 ?
1 29 105 2022 0 104 106 98 .06 .055 .0015 18 104 2019 110 107 101 108 105 ?1 29
 106 2018 0 108 109 105 .06 .055 -.0015 18 108 2015 112 115 104 114 106 ?1 29 10
9 1966 0 114 111 106 .055 .07 .0015 18 114 1963 113 116 108 117 109 ?1 29 111 19
62 0 117 119 109 .055 .07 -.0015 18 117 1959 118 120 114 122 111 ?1 29 119 1953
 0 122 125 111 .06 .065 -.0015 18 122 1950 124 121 117 123 119 ?1 29 125 1949 0
 123 130 119 .06 .065 .0015 18 123 1946 126 128 122 127 125 ?1 29 130 1897 0 127
 129 125 .065 .05 .0015 18 127 1894 131 135 123 132 130 ?1 29 129 1893 0 132 133
 130 .065 .05 -.0015 18 132 1890 134 137 127 140 129 ?1 29 133 1884 0 140 139 12
9 .07 .045 -.0015 18 140 1881 136 138 132 144 133 ?1 29 139 1880 0 144 145 133 .
07 .045 .0015 18 144 1877 142 143 140 141 139 ?1 29 145 1828 0 141 148 139 .07 -
.045 .0015 18 141 1825 150 146 144 149 145 ?1 29 148 1824 0 149 147 145 .07 -.04
5 -.0015 18 149 1821 151 155 141 153 148 ?1 29 147 1815 0 153 152 148 .065 -.05
 -.0015 18 153 1812 154 156 149 160 147 ?1 29 152 1811 0 160 158 147 .065 -.05 .
0015 18 160 1808 157 159 153 161 152 ?1 29 158 1759 0 161 165 152 .06 -.065 .001
5 18 161 1756 162 163 160 164 158 ?1 29 165 1755 0 164 167 158 .06 -.065 -.0015
 18 164 1752 170 169 161 166 165 ?1 29 167 1746 0 166 168 165 .055 -.07 -.0015 1
8 166 1743 171 172 164 174 167 ?1 29 168 1742 0 174 173 167 .055 -.07 .0015 18 1
74 1739 175 177 166 180 168 ?1 29 173 1690 0 180 179 168 -.02 -.07 .0015 18 180
 1687 176 178 174 185 173 ?1 29 179 1686 0 185 181 173 -.02 -.07 -.0015 18 185 1
683 183 182 180 184 179 ?1 29 181 1677 0 184 186 179 -.03 -.06 .0015 18 184 1674
 190 187 185 188 181 ?1 29 186 1673 0 188 189 181 -.03 -.06 -.0015 18 188 1670 1
92 195 184 194 186 ?1 29 189 1621 0 194 191 186 -.02 .07 .0015 18 194 1618 193 1
99 188 200 189 ?1 29 191 1617 0 200 197 189 -.02 .07 -.0015 18 200 1614 198 196
 194 203 191 ?1 29 197 1608 0 203 205 191 -.03 .06 .0015 18 203 1605 201 204 200
 202 197 ?1 29 205 1604 0 202 0 197 -.03 .06 -.0015 18 202 1601 206 210 203 0 20
5 ?1 81 1 206 1653 26 202 0 0 208 201 207 17 210 0 209 211 215 202 196 213 0 212
 -15 255 209 1610 0 211 214 0 17 211 0 209 199 210 203 212 216 0 220 -17 215 0 2
09 210 199 200 217 218 0 219 -17 196 0 222 225 224 200 210 213 0 215 +16 213 163
2 221 ?196 223 226 227 0 0 1 17 212 0 229 228 220 202 211 216 0 224 +15 229 125
 0 228 230 0 17 228 0 229 232 212 59 224 235 0 0 +17 220 0 229 212 232 203 234 2
31 0 0 -16 216 1609 233 ?212 218 240 236 0 0 1 17 224 0 222 196 61 202 228 235 0
 0 -15 222 1041 0 238 237 0 17 61 0 222 224 238 59 60 239 0 241 +16 235 1602 245
 ?228 242 243 244 243 243 1 81 1 245 2417 26 235 0 0 247 250 249 16 242 1684 246
 ?248 254 235 255 0 0 1 16 243 2186 252 ?195 235 253 244 235 235 1 30 255 244 11
1 0 235 251 255 0 +-.03 0 -.0015 -371726459137887e-30 -1 0 30 251 112 0 253 258
 244 0 +0 .07 -.0015 1 0 0 30 255 110 0 242 244 260 0 +0 -.07 -.0015 1 0 0 31 26
0 393 0 256 255 259 0 +.0623500000000013 .03600000038015975 -.0015 0 0 1 1 0 0 .
002000000000000035 16 256 553 257 ?261 265 263 260 0 0 1 31 259 400 0 265 260 26
2 0 +-.02165 -.0359999996198405 -.0015 0 0 1 1 0 0 .002000000000000035 16 265 52
3 264 ?266 270 256 259 0 0 1 31 262 407 0 270 259 268 0 +-.02165 .03600000038015
995 -.0015 0 0 1 1 0 0 .002000000000000035 16 270 493 267 ?269 271 265 262 0 0 1
 31 268 414 0 271 262 275 0 +.0623500000000017 -.03599999961984045 -.0015 0 0 1
 1 0 0 .002000000000000035 16 271 463 272 ?273 274 270 268 0 0 1 30 275 682 0 27
7 268 280 0 +-.022 -1300303798006456e-33 -.0015 591047180912026e-31 -1 0 16 277
 2438 279 ?79 276 278 275 0 0 1 30 280 684 0 276 275 281 0 +693889390390723e-32
 -.02934999961984045 -.0015 1 0 0 16 276 2203 282 ?284 283 277 280 0 0 1 30 281
 687 0 283 280 285 0 +693889390390723e-32 .02935000038015995 -.0015 1 0 0 16 283
 2369 287 ?290 289 276 281 0 0 1 30 285 1029 0 289 281 286 0 +.06 0 -.0015 0 1 0
 16 289 1753 288 ?295 240 283 285 0 0 1 30 286 1039 0 240 285 236 0 +.06 0 -.001
5 0 -1 0 16 240 1951 291 ?293 216 289 286 0 0 1 30 236 1611 0 216 286 292 0 +-.0
3 .06 .0015 0 0 -1 30 292 1624 0 218 236 294 0 --.02 .07 .0015 0 0 -1 16 218 162
2 296 ?217 226 216 292 0 0 1 31 294 1629 0 226 292 227 0 +-.02 .06 .0015 0 0 1 1
 0 0 .01 16 226 1627 300 ?204 213 218 294 0 0 1 31 227 1634 0 213 294 297 0 --.0
2 .06 -.0015 0 0 1 1 0 0 .01 30 297 1680 0 223 227 298 0 +-.03 -.06 .0015 0 0 1
 16 223 1678 299 ?302 305 213 297 0 0 1 30 298 1693 0 305 297 304 0 --.02 -.07 .
0015 0 0 1 16 305 1691 301 ?303 309 223 298 0 0 1 31 304 1698 0 309 298 310 0 --
.02 -.06 -.0015 0 0 1 1 0 0 .01 16 309 1696 307 ?308 306 305 304 0 0 1 31 310 17
03 0 306 304 313 0 +-.02 -.06 .0015 0 0 1 1 0 0 .01 16 306 1701 315 ?178 311 309
 310 0 0 1 30 313 1749 0 311 310 314 0 +.055 -.07 .0015 0 0 1 16 311 1747 312 ?3
16 320 306 313 0 0 1 30 314 1762 0 320 313 318 0 -.06 -.065 .0015 0 0 1 16 320 1
760 317 ?319 321 311 314 0 0 1 31 318 1767 0 321 314 325 0 -.055 -.065 -.0015 0
 0 1 1 0 0 .005 16 321 1765 323 ?172 322 320 318 0 0 1 31 325 1772 0 322 318 324
 0 +.055 -.065 .0015 0 0 1 1 0 0 .005 16 322 1770 326 ?163 330 321 325 0 0 1 30
 324 1818 0 330 325 327 0 +.065 -.05 -.0235 0 0 1 16 330 1816 328 ?329 332 322 3
24 0 0 1 30 327 1831 0 332 324 335 0 -.07 -.045 -.0015 0 0 1 16 332 1829 334 ?33
1 333 330 327 0 0 1 31 335 1836 0 333 327 336 0 -.065 -.045 -.0015 0 0 1 1 0 0 .
005 16 333 1834 337 ?339 338 332 335 0 0 1 31 336 1841 0 338 335 340 0 +.065 -.0
45 .0015 0 0 1 1 0 0 .005 16 338 1839 342 ?345 344 333 336 0 0 1 30 340 1887 0 3
44 336 341 0 +.07 .045 -.0015 0 0 1 16 344 1885 343 ?350 346 338 340 0 0 1 30 34
1 1900 0 346 340 348 0 -.065 .05 -.0015 0 0 1 16 346 1898 347 ?349 351 344 341 0
 0 1 31 348 1905 0 351 341 355 0 -.065 .045 -.0015 0 0 1 1 0 0 .005 16 351 1903
 352 ?138 353 346 348 0 0 1 31 355 1910 0 353 348 354 0 +.065 .045 .0015 0 0 1 1
 0 0 .005 16 353 1908 357 ?360 359 351 355 0 0 1 30 354 1956 0 359 355 356 0 +.0
6 .065 -.0235 0 0 1 16 359 1954 358 ?364 365 353 354 0 0 1 30 356 1969 0 365 354
 362 0 -.055 .07 -.0235 0 0 1 16 365 1967 363 ?361 368 359 356 0 0 1 31 362 1974
 0 368 356 370 0 -.055 .065 -.0015 0 0 1 1 0 0 .005 16 368 1972 366 ?121 369 365
 362 0 0 1 31 370 1979 0 369 362 367 0 +.055 .065 .0015 0 0 1 1 0 0 .005 16 369
 1977 371 ?116 375 368 370 0 0 1 30 367 2025 0 375 370 373 0 -.06 .055 -.0235 0
 0 1 16 375 2023 372 ?374 376 369 367 0 0 1 31 373 2056 0 376 367 380 0 -.065 .0
55 -.0015 0 0 1 1 0 0 .005 16 376 2036 378 ?115 377 375 373 0 0 1 31 380 2077 0
 377 373 379 0 +.065 .055 .0015 0 0 1 1 0 0 .005 16 377 2057 381 ?135 385 376 38
0 0 0 1 30 379 2110 0 385 380 382 0 +.06 -.055 -.0235 0 0 1 16 385 2108 383 ?384
 387 377 379 0 0 1 31 382 2141 0 387 379 390 0 -.065 -.055 -.0015 0 0 1 1 0 0 .0
05 16 387 2121 389 ?156 386 385 382 0 0 1 31 390 2162 0 386 382 388 0 +.065 -.05
5 .0015 0 0 1 1 0 0 .005 16 386 2142 391 ?102 392 387 390 0 0 1 30 388 2195 0 39
2 390 394 0 +-.03 -.03234999961984045 .0015 0 0 -1 16 392 2193 393 ?395 397 386
 388 0 0 1 30 394 2208 0 397 388 400 0 --.027 -.02934999961984045 -.0235 0 0 -1
 16 397 2206 399 ?396 398 392 394 0 0 1 31 400 2213 0 398 394 405 0 +-.027 -.032
34999961984045 .0015 0 0 1 1 0 0 .003 16 398 2211 401 ?95 403 397 400 0 0 1 31 4
05 2218 0 403 400 402 0 --.027 -.03234999961984045 -.0015 0 0 1 1 0 0 .003 16 40
3 2216 404 ?81 406 398 405 0 0 1 30 402 2264 0 406 405 410 0 +-.022 -.0263499996
1984045 -.0235 0 0 1 16 406 2262 407 ?408 409 403 402 0 0 1 30 410 2277 0 409 40
2 412 0 --.025 -.02934999961984045 -.0235 0 0 1 16 409 2275 415 ?414 411 406 410
 0 0 1 31 412 2308 0 411 410 413 0 --.025 -.02634999961984045 -.0015 0 0 1 1 0 0
 .003 16 411 2288 419 ?73 420 409 412 0 0 1 31 413 2329 0 420 412 417 0 +-.025 -
.02634999961984045 .0015 0 0 1 1 0 0 .003 16 420 2309 418 ?416 423 411 413 0 0 1
 30 417 2365 0 423 413 425 0 +-.03 .03235000038015995 .0015 0 0 1 16 423 2363 42
1 ?232 424 420 417 0 0 1 30 425 2378 0 424 417 422 0 --.027 .02935000038015995 .
0015 0 0 1 16 424 2376 426 ?430 239 423 425 0 0 1 31 422 2383 0 239 425 428 0 --
.027 .03235000038015995 -.0015 0 0 1 1 0 0 .003 16 239 2381 427 ?61 429 424 422
 0 0 1 31 428 2388 0 429 422 431 0 +-.027 .03235000038015995 .0015 0 0 1 1 0 0 .
003 16 429 2386 247 ?52 435 239 428 0 0 1 30 431 2434 0 435 428 433 0 +-.025 .02
935000038015995 -.0235 0 0 1 16 435 2432 432 ?434 436 429 431 0 0 1 30 433 2447
 0 436 431 20 0 --.022 .02635000038015995 -.0235 0 0 1 16 436 2445 440 ?42 25 43
5 433 0 0 1 31 20 2478 0 25 433 8 0 --.025 .02635000038015995 -.0015 0 0 1 1 0 0
 .003 16 25 2458 437 ?40 11 436 20 0 0 1 81 1 437 2514 26 25 0 0 432 23 438 80 7
 CCCCCDI12 legal_owners0 17 1 lCZ1 26 439 442 9000 0 0 0 0 3 6 0 0 0 FFTFTFTTFFF
FFFFFF1 81 1 432 2513 26 435 0 0 440 437 445 81 1 23 2515 26 11 0 0 437 279 444
 82 255 3 438 41 2 1 81 1 279 2516 26 277 0 0 23 441 443 82 3 444 41 3 1 81 1 44
1 2517 26 446 0 0 279 287 447 82 3 443 41 4 1 16 446 2442 441 ?33 449 448 450 0
 0 1 81 1 287 2518 26 283 0 0 441 452 455 82 3 447 41 5 1 81 1 452 2519 26 454 0
 0 287 451 453 82 3 455 41 6 1 16 454 2373 452 ?31 448 460 456 0 0 1 81 1 451 25
20 26 17 0 458 452 457 459 82 3 453 41 7 1 14 255 17 2455 458 ?461 0 41 6 7 -0 0
 461 0 22 81 1 458 2528 465 17 451 0 0 462 463 81 1 457 2521 26 464 0 467 451 47
0 469 82 3 459 41 0 2 14 464 865 467 ?466 468 474 6 475 +0 0 466 468 22 81 1 467
 2553 465 464 457 0 472 473 471 81 1 470 2522 26 478 0 480 457 476 479 82 3 469
 41 1 2 14 478 853 480 ?468 477 481 6 485 +0 0 468 477 22 81 1 480 2551 465 478
 470 0 483 472 482 81 1 476 2523 26 237 0 484 470 486 490 82 3 479 41 2 2 14 237
 68 484 ?488 487 489 6 491 -0 0 488 487 22 81 1 484 2542 465 237 476 0 495 492 4
93 81 1 486 2524 26 494 0 497 476 0 500 82 3 490 41 3 2 14 494 1 497 ?487 214 32
 6 499 +0 0 487 214 22 81 1 497 2540 465 494 486 0 496 495 498 82 3 500 41 4 2 8
0 1 465 0 501 8001 0 0 0 0 3 5 0 0 0 FFFFTFTFFFFFFFFFF2 81 1 496 2539 465 214 50
2 0 504 497 503 81 1 495 2541 465 487 505 0 497 484 507 83 255 3 498 .6156862745
09804 .811764705882353 .929411764705882 14 487 298 495 ?237 494 510 6 509 -0 0 2
37 494 22 81 1 505 1943 26 487 0 495 506 124 508 83 3 507 .615686274509804 .8117
64705882353 .929411764705882 81 1 506 1941 26 515 0 511 513 505 512 81 1 124 199
8 26 122 0 0 505 126 514 82 3 508 34 2 2 81 1 126 1999 26 123 0 0 124 118 516 82
 3 514 35 0 0 81 1 118 2000 26 117 0 0 126 113 520 82 3 516 35 1 0 81 1 113 2001
 26 114 0 0 118 358 517 82 3 520 35 2 0 81 1 358 2002 26 359 0 0 113 363 518 82
 3 517 35 3 0 81 1 363 2003 26 365 0 0 358 366 519 82 3 518 35 0 1 81 1 366 2004
 26 368 0 0 363 371 522 82 3 519 35 1 1 81 1 371 2005 26 369 0 0 366 525 524 82
 3 522 35 2 1 81 1 525 2008 26 253 0 0 371 521 523 82 3 524 35 3 1 16 253 1615 5
25 ?225 243 529 251 0 0 1 81 1 521 2009 26 254 0 0 525 530 527 82 3 523 35 6 1 1
6 254 1619 521 ?528 526 242 533 0 0 1 81 1 530 2010 26 535 0 531 521 534 532 82
 3 527 35 7 1 14 535 1989 531 ?515 536 540 6 538 +0 0 515 536 22 81 1 531 2534 4
65 535 530 0 537 511 539 81 1 534 2012 26 541 0 545 530 134 543 82 3 532 35 0 2
 14 541 128 545 ?230 488 542 6 544 +0 0 230 488 22 81 1 545 2544 465 541 534 0 4
92 546 550 81 1 134 2086 26 132 0 0 534 131 547 82 3 543 35 2 2 81 1 131 2087 26
 127 0 0 134 112 548 82 3 547 36 0 0 81 1 112 2088 26 108 0 0 131 110 549 82 3 5
48 36 1 0 81 1 110 2089 26 104 0 0 112 347 552 82 3 549 36 2 0 81 1 347 2090 26
 346 0 0 110 372 555 82 3 552 36 3 0 81 1 372 2091 26 375 0 0 347 378 554 82 3 5
55 36 0 1 81 1 378 2092 26 376 0 0 372 381 551 82 3 554 36 1 1 81 1 381 2093 26
 377 0 0 378 291 553 82 3 551 36 2 1 81 1 291 2094 26 240 0 0 381 556 557 82 3 5
53 36 3 1 81 1 556 2095 26 460 0 0 291 559 558 82 3 557 36 4 1 16 460 1947 556 ?
560 454 562 565 0 0 1 81 1 559 2096 26 536 0 537 556 564 561 82 3 558 36 5 1 14
 536 2033 537 ?535 563 570 6 566 -0 0 535 563 22 81 1 537 2533 465 536 559 0 568
 531 567 81 1 564 2097 26 569 0 571 559 97 575 82 3 561 36 0 2 14 569 1269 571 ?
0 466 572 6 573 -0 0 0 466 22 81 1 571 2555 465 569 564 0 473 0 574 81 1 97 2171
 26 100 0 0 564 103 577 82 3 575 36 1 2 81 1 103 2172 26 101 0 0 97 154 580 82 3
 577 37 0 0 81 1 154 2173 26 153 0 0 103 157 579 82 3 580 37 1 0 81 1 157 2174 2
6 160 0 0 154 383 576 82 3 579 37 2 0 81 1 383 2175 26 385 0 0 157 328 578 82 3
 576 37 3 0 81 1 328 2176 26 330 0 0 383 389 584 82 3 578 37 0 1 81 1 389 2177 2
6 387 0 0 328 391 585 82 3 584 37 1 1 81 1 391 2178 26 386 0 0 389 288 582 82 3
 585 37 2 1 81 1 288 2179 26 289 0 0 391 583 581 82 3 582 37 3 1 81 1 583 2180 2
6 562 0 0 288 588 590 82 3 581 37 4 1 16 562 1757 583 ?586 460 0 589 0 0 1 81 1
 588 2181 26 563 0 568 583 587 591 82 3 590 37 5 1 14 563 2118 568 ?536 595 593
 6 592 -0 0 536 595 22 81 1 568 2532 465 563 588 0 594 537 596 81 1 587 2182 26
 466 0 473 588 84 600 82 3 591 37 0 2 14 466 1400 473 ?569 464 598 6 597 +0 0 56
9 464 22 81 1 473 2554 465 466 587 0 467 571 599 81 1 84 2237 26 82 0 0 587 90 6
01 82 3 600 37 1 2 81 1 90 2238 26 83 0 0 84 92 605 82 3 601 38 0 0 81 1 92 2239
 26 91 0 0 90 93 602 82 3 605 38 1 0 81 1 93 2240 26 88 0 0 92 399 603 82 3 602
 38 2 0 81 1 399 2241 26 397 0 0 93 393 604 82 3 603 38 3 0 81 1 393 2242 26 392
 0 0 399 404 607 82 3 604 38 0 1 81 1 404 2243 26 403 0 0 393 401 610 82 3 607 3
8 1 1 81 1 401 2244 26 398 0 0 404 252 609 82 3 610 38 2 1 81 1 252 2247 26 243
 0 0 401 606 608 82 3 609 38 3 1 81 1 606 2248 26 526 0 0 252 611 612 82 3 608 3
8 6 1 16 526 2190 606 ?187 231 254 614 231 231 1 81 1 611 2249 26 595 0 594 606
 613 615 82 3 612 38 7 1 14 595 2228 594 ?563 617 620 6 619 +0 0 563 617 22 81 1
 594 2531 465 595 611 0 616 568 618 81 1 613 2251 26 488 0 492 611 78 625 82 3 6
15 38 0 2 14 488 716 492 ?541 237 621 6 623 -230 230 541 237 22 81 1 492 2543 46
5 488 613 0 484 545 622 81 1 78 2338 26 80 0 0 613 76 624 82 3 625 38 2 2 81 1 7
6 2339 26 72 0 0 78 71 626 82 3 624 39 0 0 81 1 71 2340 26 68 0 0 76 69 630 82 3
 626 39 1 0 81 1 69 2341 26 67 0 0 71 407 627 82 3 630 39 2 0 81 1 407 2342 26 4
06 0 0 69 415 628 82 3 627 39 3 0 81 1 415 2343 26 409 0 0 407 419 629 82 3 628
 39 0 1 81 1 419 2344 26 411 0 0 415 418 632 82 3 629 39 1 1 81 1 418 2345 26 42
0 0 0 419 282 635 82 3 632 39 2 1 81 1 282 2348 26 276 0 0 418 634 631 82 3 635
 39 3 1 81 1 634 2349 26 448 0 0 282 633 639 82 3 631 39 6 1 16 448 2199 634 ?64
0 446 454 637 0 0 1 81 1 633 2350 26 617 0 616 634 638 636 82 3 639 39 7 1 14 61
7 2285 616 ?595 461 643 6 645 -0 0 595 461 22 81 1 616 2530 465 617 633 0 462 59
4 641 81 1 638 2352 26 468 0 472 633 57 644 82 3 636 39 0 2 14 468 861 472 ?464
 478 642 6 646 -0 0 464 478 22 81 1 472 2552 465 468 638 0 480 467 650 81 1 57 2
407 26 53 0 0 638 55 648 82 3 644 39 2 2 81 1 55 2408 26 49 0 0 57 58 647 82 3 6
48 40 0 0 81 1 58 2409 26 59 0 0 55 63 649 82 3 647 40 1 0 81 1 63 2410 26 62 0
 0 58 426 651 82 3 649 40 2 0 81 1 426 2411 26 424 0 0 63 421 655 82 3 651 40 3
 0 81 1 421 2412 26 423 0 0 426 427 653 82 3 655 40 0 1 81 1 427 2413 26 239 0 0
 421 247 652 82 3 653 40 1 1 81 1 247 2414 26 429 0 0 427 245 654 82 3 652 40 2
 1 82 3 654 40 3 1 83 3 650 .615686274509804 .811764705882353 .929411764705882 1
5 642 848 0 640 468 0 50 255 646 881 0 468 475 485 0 +-.026 -.02934999961984045
 -.0235 0 -1 0 0 0 -1 13 22 49 0 0 0 0 0 0 10 17 50 475 882 0 464 597 646 0 +-.0
22 3801597370234335e-25 -.0235 -1 -591047180912026e-31 0 591047180912026e-31 -1
 0 50 485 879 0 478 646 656 0 +-.026 .02935000038015995 -.0235 0 -1 0 0 0 -1 51
 656 599 0 660 485 657 0 +-.02165 -.0359999996198405 -.0235 0 0 1 .0020000000000
00035 1 0 0 14 660 539 658 ?659 662 665 6 656 -0 0 659 662 22 51 657 596 0 477 6
56 664 0 +.0623500000000017 -.03599999961984045 -.0235 0 0 1 .002000000000000035
 1 0 0 14 477 479 483 ?478 659 661 6 657 -0 0 478 659 22 51 664 593 0 659 657 66
3 0 +-.02165 .03600000038015995 -.0235 0 0 1 .002000000000000035 1 0 0 14 659 50
9 666 ?477 660 667 6 664 -0 0 477 660 22 51 663 590 0 662 664 509 0 +.0623500000
000013 .03600000038015975 -.0235 0 0 1 .002000000000000035 1 0 0 14 662 569 669
 ?660 668 670 6 663 -0 0 660 668 22 50 509 324 0 487 663 499 0 +.07 0 -.0015 -1
 -2973811673103095e-31 0 2973811673103095e-31 -1 0 50 499 3 0 494 509 491 0 +693
889390390723e-32 0 .0015 0 0 1 1 0 0 50 491 108 0 237 499 672 0 +693889390390723
e-32 0 -.0015 0 0 1 1 0 0 50 672 130 0 668 491 623 0 +0 -.07 .0015 0 1 0 0 0 1 1
4 668 124 675 ?662 230 674 6 672 -0 0 662 230 22 50 623 131 0 230 672 544 0 +-.0
3 0 .0015 1 -371726459137887e-30 0 371726459137887e-30 1 0 14 230 126 546 ?668 5
41 229 6 623 -488 488 668 541 22 50 544 132 0 541 623 671 0 +0 .07 .0015 0 1 0 0
 0 1 51 671 1647 0 214 544 673 0 +-.02 .06 .0015 0 0 1 .01 1 0 0 14 214 1644 496
 ?494 680 209 6 671 +0 0 494 680 22 51 673 1716 0 680 671 676 0 +-.02 -.06 .0015
 0 0 1 .01 1 0 0 14 680 1713 504 ?214 678 677 6 673 +0 0 214 678 22 51 676 1785
 0 678 673 679 0 +.055 -.065 .0015 0 0 -1 .005 -1 0 0 14 678 1782 681 ?680 685 6
82 6 676 +0 0 680 685 22 51 679 1854 0 685 676 683 0 +.065 -.045 -.0235 0 0 1 .0
05 1 0 0 14 685 1851 684 ?678 515 687 6 679 +0 0 678 515 22 51 683 1923 0 515 67
9 538 0 +.065 .045 -.0015 0 0 -1 .005 -1 0 0 14 515 1920 511 ?685 535 690 6 683
 +0 0 685 535 22 51 538 1992 0 535 683 566 0 +.055 .065 -.0235 0 0 -1 .005 -1 0
 0 51 566 2078 0 536 538 592 0 +.065 .055 -.0235 0 0 1 .005 1 0 0 51 592 2163 0
 563 566 619 0 +.065 -.055 -.0235 0 0 1 .005 1 0 0 51 619 2231 0 595 592 645 0 +
-.027 -.03234999961984045 .0015 0 0 -1 .003 -1 0 0 51 645 2330 0 617 619 19 0 +-
.025 -.02634999961984045 -.0235 0 0 1 .003 1 0 0 51 19 2401 0 461 645 7 0 +-.027
 .03235000038015995 .0015 0 0 -1 .003 -1 0 0 14 461 2398 462 ?617 17 689 6 19 +0
 0 617 17 22 81 1 462 2529 465 461 686 0 458 616 688 15 689 2364 0 241 461 0 17
 241 0 689 60 65 59 232 423 0 228 -17 60 0 689 694 241 53 61 239 0 430 -17 65 0
 689 241 694 62 52 429 0 232 -17 232 0 229 220 228 62 241 423 0 234 +17 234 0 32
 52 204 62 220 231 0 0 +15 32 2502 0 30 494 695 17 52 0 32 31 234 49 65 429 0 69
4 +17 204 0 32 234 692 203 199 226 0 211 +16 231 1606 250 ?234 278 526 614 526 5
26 1 81 1 250 2418 26 231 0 0 245 686 693 16 278 1688 691 ?698 277 231 258 0 0 1
 30 614 14 0 231 533 258 0 +-.03 0 .0015 -371726459137887e-30 -1 0 30 533 9 0 25
4 700 614 0 +0 .07 .0015 1 0 0 30 258 19 0 278 614 251 0 +0 -.07 .0015 1 0 0 30
 700 337 0 274 696 533 0 +.07 0 .0015 29738116731031e-29 -1 0 16 274 1878 699 ?1
46 529 271 700 0 0 1 30 696 341 0 529 697 700 0 +.07 0 -.0015 29738116731031e-29
 -1 0 16 529 1882 513 ?155 253 274 696 0 0 1 31 697 602 0 263 701 696 0 +.062350
0000000013 .03600000038015975 .0015 0 0 1 1 0 0 .002000000000000035 16 263 559 7
05 ?703 256 702 697 0 0 1 31 701 604 0 704 706 697 0 +-.02165 .03600000038015995
 .0015 0 0 1 1 0 0 .002000000000000035 16 704 499 710 ?708 702 449 701 0 0 1 31
 706 606 0 702 707 701 0 +.0623500000000017 -.03599999961984045 .0015 0 0 1 1 0
 0 .002000000000000035 16 702 469 709 ?711 263 704 706 0 0 1 31 707 608 0 449 45
0 706 0 +-.02165 -.0359999996198405 .0015 0 0 1 1 0 0 .002000000000000035 16 449
 529 715 ?712 704 446 707 0 0 1 30 450 889 0 446 637 707 0 +-.022 38015973702343
35e-25 .0015 591047180912026e-31 -1 0 30 637 890 0 448 456 450 0 +-.026 -.029349
99961984045 .0015 1 0 0 30 456 892 0 454 589 637 0 +-.026 .02935000038015995 .00
15 1 0 0 30 589 1437 0 562 565 456 0 +.06 -.06 .0015 0 1 0 30 565 1451 0 460 0 5
89 0 +.06 .06 .0015 0 -1 0 81 1 715 624 26 449 0 0 709 713 714 17 712 0 665 712
 712 0 717 449 0 0 +15 665 537 0 712 660 720 17 717 0 719 717 717 0 712 449 0 0
 -15 719 427 0 717 494 716 15 716 420 0 718 494 0 17 718 0 716 718 718 0 703 263
 0 0 -17 703 0 670 703 703 0 718 263 0 0 +15 670 567 0 703 662 721 15 721 568 0
 722 662 0 17 722 0 721 722 722 0 261 256 0 0 -17 261 0 724 261 261 0 722 256 0
 0 +15 724 391 0 261 237 222 15 720 538 0 723 660 0 17 723 0 720 723 723 0 266 2
65 0 0 -17 266 0 725 266 266 0 723 265 0 0 +15 725 398 0 266 237 724 81 1 709 62
3 26 702 0 0 710 715 727 81 1 713 625 26 662 0 669 715 730 729 82 3 714 19 7 1 8
1 1 669 2547 465 662 713 0 675 658 726 81 1 730 626 26 659 0 666 713 728 735 82
 3 729 19 0 2 81 1 666 2549 465 659 730 0 658 483 731 81 1 728 627 26 477 0 483
 730 208 733 82 3 735 19 1 2 81 1 483 2550 465 477 728 0 666 480 732 81 1 208 62
8 26 660 0 658 728 206 734 82 3 733 19 2 2 81 1 658 2548 465 660 208 0 669 666 7
36 82 3 734 19 3 2 83 3 736 .615686274509804 .811764705882353 .929411764705882 8
3 3 732 .615686274509804 .811764705882353 .929411764705882 83 3 731 .61568627450
9804 .811764705882353 .929411764705882 81 1 675 2546 465 668 740 0 546 669 737 8
3 3 726 .615686274509804 .811764705882353 .929411764705882 81 1 740 1805 26 668
 0 675 738 151 739 81 1 546 2545 465 230 39 0 545 675 742 83 3 737 .615686274509
804 .811764705882353 .929411764705882 81 1 39 2421 26 230 0 546 686 28 745 83 3
 742 .615686274509804 .811764705882353 .929411764705882 81 1 686 2419 26 461 0 4
62 250 39 744 82 3 745 40 2 2 82 3 744 40 0 2 81 1 738 1803 26 678 0 681 691 740
 741 81 1 151 1862 26 149 0 0 740 150 743 82 3 739 32 2 2 81 1 150 1863 26 141 0
 0 151 334 749 82 3 743 33 2 0 81 1 334 1865 26 332 0 0 150 337 750 82 3 749 33
 3 0 81 1 337 1866 26 333 0 0 334 342 747 82 3 750 33 1 1 81 1 342 1867 26 338 0
 0 337 748 746 82 3 747 33 2 1 81 1 748 1872 26 685 0 684 342 136 753 82 3 746 3
3 3 1 81 1 684 2536 465 685 748 0 511 681 755 81 1 136 1931 26 140 0 0 748 142 7
51 82 3 753 33 0 2 81 1 142 1932 26 144 0 0 136 343 754 82 3 751 34 2 0 81 1 343
 1934 26 344 0 0 142 352 752 82 3 754 34 3 0 81 1 352 1935 26 351 0 0 343 357 75
6 82 3 752 34 1 1 81 1 357 1936 26 353 0 0 352 699 760 82 3 756 34 2 1 81 1 699
 1939 26 274 0 0 357 513 758 82 3 760 34 3 1 81 1 513 1940 26 529 0 0 699 506 75
7 82 3 758 34 6 1 82 3 757 34 7 1 81 1 511 2535 465 515 506 0 531 684 759 81 1 6
81 2537 465 678 738 0 684 504 761 83 3 755 .615686274509804 .811764705882353 .92
9411764705882 81 1 504 2538 465 680 765 0 681 496 763 83 3 761 .615686274509804
 .811764705882353 .929411764705882 81 1 765 1734 26 680 0 504 315 170 762 83 3 7
63 .615686274509804 .811764705882353 .929411764705882 81 1 315 1729 26 306 0 0 3
07 765 764 81 1 170 1791 26 164 0 0 765 162 766 82 3 762 31 0 2 81 1 162 1792 26
 161 0 0 170 171 770 82 3 766 32 0 0 81 1 171 1793 26 166 0 0 162 175 767 82 3 7
70 32 1 0 81 1 175 1794 26 174 0 0 171 317 768 82 3 767 32 2 0 81 1 317 1795 26
 320 0 0 175 312 769 82 3 768 32 3 0 81 1 312 1796 26 311 0 0 317 323 772 82 3 7
69 32 0 1 81 1 323 1797 26 321 0 0 312 326 775 82 3 772 32 1 1 81 1 326 1798 26
 322 0 0 323 246 774 82 3 775 32 2 1 81 1 246 1801 26 242 0 0 326 691 771 82 3 7
74 32 3 1 81 1 691 1802 26 278 0 0 246 738 773 82 3 771 32 6 1 82 3 773 32 7 1 8
1 1 307 1728 26 309 0 0 301 315 776 82 3 764 31 3 1 81 1 301 1727 26 305 0 0 299
 307 777 82 3 776 31 2 1 81 1 299 1726 26 223 0 0 176 301 779 82 3 777 31 1 1 81
 1 176 1725 26 180 0 0 183 299 778 82 3 779 31 0 1 81 1 183 1724 26 185 0 0 190
 176 780 82 3 778 31 3 0 81 1 190 1723 26 184 0 0 192 183 782 82 3 780 31 2 0 81
 1 192 1722 26 188 0 0 502 190 785 82 3 782 31 1 0 81 1 502 1665 26 214 0 496 30
0 192 784 82 3 785 31 0 0 81 1 300 1660 26 226 0 0 221 502 781 82 3 784 30 0 2 8
1 1 221 1659 26 213 0 0 296 300 783 82 3 781 30 3 1 81 1 296 1658 26 218 0 0 233
 221 790 82 3 783 30 2 1 81 1 233 1657 26 216 0 0 193 296 786 82 3 790 30 1 1 81
 1 193 1656 26 194 0 0 198 233 788 82 3 786 30 0 1 81 1 198 1655 26 200 0 0 201
 193 787 82 3 788 30 3 0 81 1 201 1654 26 203 0 0 206 198 789 82 3 787 30 2 0 82
 3 789 30 1 0 83 3 759 .615686274509804 .811764705882353 .929411764705882 82 3 7
41 32 0 2 81 1 710 622 26 704 0 0 705 709 791 82 3 727 19 6 1 81 1 705 621 26 26
3 0 0 264 710 795 82 3 791 19 5 1 81 1 264 620 26 265 0 0 272 705 792 82 3 795 1
9 4 1 81 1 272 619 26 271 0 0 267 264 793 82 3 792 19 3 1 81 1 267 618 26 270 0
 0 257 272 794 82 3 793 19 2 1 81 1 257 617 26 256 0 0 797 267 800 82 3 794 19 1
 1 81 1 797 379 26 1 0 799 0 257 796 82 3 800 19 0 1 81 1 799 2525 798 1 797 14
 0 0 804 82 3 796 6 0 3 80 1 798 805 802 8038 0 0 0 0 0 0 0 0 0 TTTTTTTTTTTTTFTF
T10 81 1 14 2526 805 1 799 2 0 0 803 98 255 6 804 80 97 114 116 32 49 80 1 805 8
01 808 8017 0 0 0 0 0 0 0 0 0 TTTTTTTTTTTTTFTFT3 84 255 6 803 Part 179 255 13 80
8 SDL/TYSA_NAME79 14 802 SDL/TYSA_UNAME17 711 0 661 711 711 0 810 702 0 0 +15 66
1 477 0 711 477 806 17 810 0 695 810 810 0 711 702 0 0 -15 695 441 0 810 494 809
 15 809 434 0 807 494 719 17 807 0 809 807 807 0 708 704 0 0 -17 708 0 667 708 7
08 0 807 704 0 0 +15 667 507 0 708 659 811 15 811 508 0 815 659 0 17 815 0 811 8
15 815 0 269 270 0 0 -17 269 0 813 269 269 0 815 270 0 0 +15 813 405 0 269 237 7
25 15 806 478 0 812 477 0 17 812 0 806 812 812 0 273 271 0 0 -17 273 0 489 273 2
73 0 812 271 0 0 +15 489 412 0 273 237 813 17 155 0 222 339 138 149 814 529 0 81
6 +17 339 0 222 99 155 153 816 333 0 820 +17 138 0 222 155 137 140 818 351 0 817
 +17 814 0 510 350 331 140 155 529 0 0 -17 816 0 687 819 820 149 339 333 0 331 -
15 687 1817 0 820 685 0 17 819 0 687 821 816 141 331 332 0 0 -17 820 0 687 816 8
21 153 329 330 0 0 -17 331 0 510 814 146 149 819 332 0 0 +15 510 1057 0 814 487
 0 17 146 0 510 331 350 141 825 274 0 345 +17 350 0 510 146 814 144 817 344 0 82
5 +17 825 0 32 360 345 144 146 274 0 0 -17 345 0 32 825 159 141 821 338 0 819 +1
7 159 0 32 345 586 160 102 386 0 821 -17 821 0 687 820 819 160 345 338 0 329 -17
 329 0 593 102 156 160 820 330 0 0 +15 593 2109 0 822 563 0 17 102 0 593 822 329
 101 159 386 0 384 +17 156 0 593 329 822 153 99 387 0 339 +17 822 0 593 156 102
 100 384 385 0 295 -17 99 0 222 823 339 100 156 387 0 822 -17 823 0 222 172 99 1
64 295 289 0 0 -17 172 0 222 824 823 166 169 321 0 827 +17 295 0 598 384 319 100
 823 289 0 0 +15 598 1391 0 295 466 0 17 384 0 598 830 295 101 822 385 0 586 +17
 319 0 598 295 830 164 829 320 0 823 +17 830 0 598 319 384 161 586 562 0 0 -17 8
29 0 682 177 169 161 319 320 0 830 -15 682 1748 0 827 678 0 17 177 0 682 827 829
 174 163 322 0 316 -17 169 0 682 829 827 164 172 321 0 319 -17 827 0 682 169 177
 166 316 311 0 248 -17 316 0 674 826 248 174 827 311 0 698 +17 248 0 674 316 303
 166 824 242 0 0 +15 674 123 0 248 668 0 17 303 0 674 248 826 185 828 305 0 824
 +17 824 0 222 308 172 185 248 242 0 0 -17 308 0 222 831 824 188 182 309 0 832 +
17 831 0 222 81 308 91 195 243 0 0 -17 182 0 677 828 832 185 308 309 0 303 -17 8
32 0 677 182 834 188 302 223 0 0 -15 677 1679 0 832 680 0 17 834 0 677 832 828 1
84 178 306 0 302 -17 302 0 621 833 195 184 832 223 0 0 +15 621 715 0 833 488 0 1
7 833 0 621 395 302 88 187 526 0 0 -17 195 0 621 302 395 188 831 243 0 308 +17 3
95 0 621 195 833 91 835 392 0 831 +17 835 0 620 87 96 88 395 392 0 833 -15 620 2
194 0 835 595 0 17 87 0 620 837 835 83 95 398 0 396 -17 96 0 620 835 837 91 81 4
03 0 395 -17 837 0 620 96 87 82 396 397 0 840 -17 81 0 222 284 831 82 96 403 0 8
37 +17 284 0 222 839 81 68 840 276 0 0 +17 839 0 222 836 284 80 73 411 0 838 -17
 840 0 642 396 414 82 284 276 0 0 -17 396 0 642 640 840 83 837 397 0 845 +17 414
 0 642 840 640 68 841 409 0 284 +17 640 0 642 414 396 67 845 448 0 0 +17 841 0 6
43 416 73 67 414 409 0 640 -15 643 2263 0 838 617 0 17 416 0 643 838 841 72 66 4
20 0 408 +17 73 0 643 841 838 68 839 411 0 414 +17 838 0 643 73 416 80 408 406 0
 0 -17 408 0 474 843 79 72 838 406 0 0 +15 474 852 0 843 464 0 17 843 0 474 42 4
08 12 33 446 0 0 -17 79 0 474 408 42 80 836 277 0 839 +17 42 0 474 79 843 29 38
 436 0 836 +17 836 0 222 43 839 29 79 277 0 0 -17 43 0 222 238 836 36 40 25 0 45
 -17 238 0 222 61 43 53 290 283 0 0 -17 45 0 41 40 24 36 434 435 0 290 -15 41 24
33 0 45 17 0 17 24 0 41 45 38 44 30 11 0 434 +17 434 0 481 842 290 44 45 435 0 3
1 +17 290 0 481 434 430 36 238 283 0 0 +15 481 844 0 290 478 0 17 430 0 481 290
 842 53 694 424 0 238 +17 842 0 481 430 434 49 31 454 0 0 -17 694 0 689 65 60 49
 430 424 0 842 -17 31 0 32 30 52 44 842 454 0 0 +17 38 0 41 24 40 12 42 436 0 84
3 -17 33 0 32 66 30 72 843 446 0 416 +17 66 0 32 845 33 67 416 420 0 841 -17 845
 0 32 95 66 83 640 448 0 0 -17 95 0 32 187 845 88 87 398 0 835 +17 187 0 32 178
 95 184 833 526 0 834 +17 178 0 32 698 187 180 834 306 0 828 +17 698 0 32 163 17
8 174 826 278 0 0 +17 828 0 677 834 182 180 303 305 0 826 -17 826 0 674 303 316
 180 698 278 0 0 -17 163 0 32 586 698 161 177 322 0 829 +17 586 0 32 159 163 101
 830 562 0 0 +17 360 0 32 107 825 127 143 353 0 844 +17 107 0 32 846 360 104 135
 377 0 850 -17 143 0 690 817 844 144 360 353 0 350 -17 844 0 690 143 818 127 349
 346 0 0 -15 690 1886 0 817 515 0 17 818 0 690 844 817 132 138 351 0 349 -17 349
 0 570 115 135 132 844 346 0 0 +15 570 1252 0 850 536 0 17 115 0 570 850 349 108
 137 376 0 374 +17 135 0 570 349 850 127 107 377 0 360 +17 850 0 570 135 115 104
 374 375 0 560 -17 374 0 572 847 560 108 850 375 0 293 +17 560 0 572 374 364 104
 846 460 0 0 +15 572 1256 0 560 569 0 17 364 0 572 560 847 123 848 359 0 846 +17
 846 0 32 116 107 123 560 460 0 0 -17 116 0 32 692 846 114 128 369 0 849 +17 692
 0 32 204 116 194 528 254 0 0 -17 128 0 540 848 849 123 116 369 0 364 -17 849 0
 540 128 120 114 361 365 0 528 -15 540 1955 0 848 535 0 17 120 0 540 849 848 117
 121 368 0 361 -17 361 0 542 219 528 117 849 365 0 225 +17 528 0 542 361 217 114
 692 254 0 0 +15 542 1082 0 528 541 0 17 217 0 542 528 219 194 215 218 0 692 +17
 219 0 542 217 361 200 225 253 0 0 -17 225 0 222 121 196 117 219 253 0 0 +17 121
 0 222 293 225 122 120 368 0 848 +17 293 0 222 137 121 108 847 240 0 0 +17 848 0
 540 120 128 122 364 359 0 847 -17 847 0 572 364 374 122 293 240 0 0 -17 137 0 2
22 138 293 132 115 376 0 818 -17 817 0 690 818 143 140 350 344 0 814 -82 3 693 4
0 7 1 17 199 0 209 215 211 194 204 226 0 217 -83 3 688 .615686274509804 .8117647
05882353 .929411764705882 50 597 1422 0 466 573 475 0 +.06 -.06 -.0235 1 0 0 0 0
 -1 50 573 1426 0 569 0 597 0 +.06 .06 -.0235 -1 0 0 0 0 1 83 3 641 .61568627450
9804 .811764705882353 .929411764705882 83 3 622 .615686274509804 .81176470588235
3 .929411764705882 83 3 618 .615686274509804 .811764705882353 .929411764705882 8
3 3 599 .615686274509804 .811764705882353 .929411764705882 83 3 596 .61568627450
9804 .811764705882353 .929411764705882 83 3 574 .615686274509804 .81176470588235
3 .929411764705882 83 3 567 .615686274509804 .811764705882353 .929411764705882 8
3 3 550 .615686274509804 .811764705882353 .929411764705882 83 3 539 .61568627450
9804 .811764705882353 .929411764705882 82 3 512 34 0 2 83 3 503 .615686274509804
 .811764705882353 .929411764705882 79 15 501 SDL/TYSA_COLOUR83 3 493 .6156862745
09804 .811764705882353 .929411764705882 83 3 482 .615686274509804 .8117647058823
53 .929411764705882 83 3 471 .615686274509804 .811764705882353 .929411764705882
 83 3 463 .615686274509804 .811764705882353 .929411764705882 81 1 440 2512 26 43
6 0 0 47 432 852 82 3 445 41 1 1 81 1 47 2511 26 44 0 0 34 440 855 82 3 852 41 0
 1 81 1 34 2510 26 36 0 0 27 47 854 82 3 855 41 3 0 82 3 854 41 2 0 79 9 442 BTI
/DetId82 3 249 40 6 1 82 3 207 30 0 0 82 3 37 41 0 0 82 3 35 41 1 0 19 18 138 0
 1 0 10 6 0 S0 74 4 CI16 index_map_offset0 0 1 dCCZ20 16 5 0 0 486 799 14 2 571
 0 0 0 0 0 0 0 0 0 0 0 0 0 0 0 80 1 13 465 851 8040 0 0 0 0 3 5 0 0 0 TTTFFFFFFF
FFFFFFF2 83 3 15 .615686274509804 .811764705882353 .929411764705882 79 17 851 SD
L/TYSA_COLOUR_21 0 
